<svg t="1714807936025" class="icon" viewBox="0 0 1024 1024" version="1.1" xmlns="http://www.w3.org/2000/svg" p-id="1574"
	data-spm-anchor-id="a313x.search_index.0.i7.50463a813x8zlP" width="48" height="48">
	<path
		d="M514.4 32c-262.08 0-475.2 213.12-475.2 475.2s213.12 475.2 475.2 475.2c16.32 0 29.76-13.44 29.76-29.76 0-16.32-13.44-29.76-29.76-29.76-229.44 0-415.68-186.24-415.68-415.68s186.24-415.68 415.68-415.68c106.08 0 207.36 40.32 284.16 113.76 12.48 11.04 31.2 10.56 42.24-1.44 11.04-12.48 10.56-31.2-1.44-42.24-88.32-83.52-203.04-129.6-324.96-129.6z m154.56 864.48c-16.32 0-29.76 13.44-29.76 29.76 0 16.32 13.44 29.76 29.76 29.76 16.32 0 29.76-13.44 29.76-29.76 0-16.8-13.44-29.76-29.76-29.76z m120.96-68.64c-16.32 0-29.76 13.44-29.76 29.76 0 16.32 13.44 29.76 29.76 29.76 16.32 0 29.76-13.44 29.76-29.76 0-16.32-13.44-29.76-29.76-29.76z m151.2-424.8c16.32 0 29.76-13.44 29.76-29.76 0-16.32-13.44-29.76-29.76-29.76-16.32 0-29.76 13.44-29.76 29.76 0.48 16.8 13.44 29.76 29.76 29.76z m18.72 74.4c-16.32 0-29.76 13.44-29.76 29.76 0 16.32 13.44 29.76 29.76 29.76 16.32 0 29.76-13.44 29.76-29.76 0-16.32-13.44-29.76-29.76-29.76z m-18.72 133.92c-16.32 0-29.76 13.44-29.76 29.76 0 16.32 13.44 29.76 29.76 29.76 16.32 0 29.76-13.44 29.76-29.76 0-16.8-12.96-29.76-29.76-29.76z m-59.04 120c-16.32 0-29.76 13.44-29.76 29.76 0 16.32 13.44 29.76 29.76 29.76 16.32 0 29.76-13.44 29.76-29.76 0-16.32-13.44-29.76-29.76-29.76z m-161.76-130.56L531.2 489.44v-240c0-16.32-13.44-29.76-29.76-29.76-16.32 0-29.76 13.44-29.76 29.76V507.2c0 12.48 7.68 23.52 18.72 27.84l199.2 117.12c4.32 2.88 9.6 4.32 14.88 4.32 10.56 0 20.16-5.28 25.92-14.88 8.64-13.92 3.84-32.64-10.08-40.8z"
		p-id="1575" fill="#d81e06"></path>
</svg>