<svg t="1716191528018" class="icon" viewBox="0 0 1024 1024" version="1.1" xmlns="http://www.w3.org/2000/svg" p-id="2833" data-spm-anchor-id="a313x.search_index.0.i4.719a3a81pEjZA9" width="200" height="200"><path d="M798.6688 922.4704H243.6608c-73.4208 0-133.12-59.6992-133.12-133.12V234.3424c0-73.4208 59.6992-133.12 133.12-133.12h555.008c73.4208 0 133.12 59.6992 133.12 133.12v555.008c0 73.4208-59.6992 133.12-133.12 133.12zM243.6608 162.6624c-39.5264 0-71.68 32.1536-71.68 71.68v555.008c0 39.5264 32.1536 71.68 71.68 71.68h555.008c39.5264 0 71.68-32.1536 71.68-71.68V234.3424c0-39.5264-32.1536-71.68-71.68-71.68H243.6608z" fill="#bfbfbf" p-id="2834" data-spm-anchor-id="a313x.search_index.0.i0.719a3a81pEjZA9" class=""></path><path d="M344.6784 448.4096c-8.0384 0-15.8208-3.1744-21.5552-8.8064L260.864 378.3168c-12.0832-11.8784-12.2368-31.3344-0.3584-43.4688a30.78144 30.78144 0 0 1 43.4688-0.3584L343.8592 373.76l95.1296-100.7104a30.68416 30.68416 0 0 1 43.4176-1.2288 30.68416 30.68416 0 0 1 1.2288 43.4176L367.0016 438.784a30.80704 30.80704 0 0 1-21.76 9.6256h-0.5632z" fill="#FF623E" p-id="2835"></path><path d="M761.856 390.6048h-172.0832c-16.9472 0-30.72-13.7728-30.72-30.72s13.7728-30.72 30.72-30.72h172.0832c16.9472 0 30.72 13.7728 30.72 30.72s-13.7728 30.72-30.72 30.72z" fill="#bfbfbf" p-id="2836" data-spm-anchor-id="a313x.search_index.0.i2.719a3a81pEjZA9" class=""></path><path d="M761.856 667.904h-172.0832c-16.9472 0-30.72-13.7728-30.72-30.72s13.7728-30.72 30.72-30.72h172.0832c16.9472 0 30.72 13.7728 30.72 30.72s-13.7728 30.72-30.72 30.72z" fill="#FF623E" p-id="2837"></path><path d="M371.9168 756.1216c-65.5872 0-118.9376-53.3504-118.9376-118.9376s53.3504-118.9376 118.9376-118.9376 118.9376 53.3504 118.9376 118.9376-53.3504 118.9376-118.9376 118.9376z m0-176.4864c-31.6928 0-57.4976 25.8048-57.4976 57.4976s25.8048 57.4976 57.4976 57.4976 57.4976-25.8048 57.4976-57.4976-25.8048-57.4976-57.4976-57.4976z" fill="#bfbfbf" p-id="2838" data-spm-anchor-id="a313x.search_index.0.i1.719a3a81pEjZA9" class=""></path></svg>