<?xml version="1.0" encoding="UTF-8"?>
<svg version="1.1" xmlns="http://www.w3.org/2000/svg" width="217" height="217">
<path d="M0 0 C0.99 0 1.98 0 3 0 C3.23148755 10.87991483 2.82265031 21.40977227 1.4375 32.20703125 C1.0926456 35.19679574 0.90569294 37.99985666 1 41 C2.16015625 40.4225 3.3203125 39.845 4.515625 39.25 C21.87777329 30.88824043 21.87777329 30.88824043 31 33 C33.82421875 34.35546875 33.82421875 34.35546875 36 36 C36 36.99 36 37.98 36 39 C36.66 39 37.32 39 38 39 C42.63421641 46.24096313 42.42691034 52.55666209 42 61 C49.07344964 64.3744379 49.07344964 64.3744379 56.4375 67 C59.97029266 68.37865079 61.21569443 69.64550553 63 73 C63.67993909 79.63620551 60.72168853 85.5890025 58.05859375 91.49609375 C56.87019813 93.85394109 56.87019813 93.85394109 57 96 C58.04507999 97.69091594 59.13658901 99.3532745 60.25 101 C63.58929569 106.18398727 66.10435204 111.13753316 68 117 C68.2990625 117.88171875 68.598125 118.7634375 68.90625 119.671875 C71.04394313 127.15380095 71.28163557 134.37921492 71.3125 142.125 C71.31797852 143.12611816 71.32345703 144.12723633 71.32910156 145.15869141 C71.15197323 163.7602207 64.17314804 181.60465428 51 195 C45.78166978 200.02998284 40.13905521 204.1644682 34 208 C33.2265625 208.48597656 32.453125 208.97195312 31.65625 209.47265625 C20.04330036 216.15010229 8.88834176 217.60018959 -4.3125 217.625 C-4.99696198 217.63171722 -5.68142395 217.63843445 -6.3866272 217.64535522 C-15.65722311 217.69818427 -23.41796736 216.50916803 -32 213 C-32.81742676 212.67918457 -33.63485352 212.35836914 -34.47705078 212.02783203 C-53.39536905 204.40469325 -66.98082541 189.43969542 -75 171 C-82.14507891 150.80836879 -82.68736995 129.5308879 -73.51953125 109.81640625 C-72.07757519 107.14378332 -70.57859706 104.53149673 -69 101.9375 C-68.2575 100.71353516 -68.2575 100.71353516 -67.5 99.46484375 C-67.005 98.65144531 -66.51 97.83804688 -66 97 C-64.9989779 95.33394702 -63.99868839 93.66745293 -63 92 C-66.83914317 84.72583399 -71.39068968 81.00757347 -78.48828125 76.921875 C-81 75 -81 75 -81.98046875 72.390625 C-81.98691406 71.60171875 -81.99335937 70.8128125 -82 70 C-81.01 69.01 -81.01 69.01 -80 68 C-76.375 68.375 -76.375 68.375 -73 69 C-73 68.34 -73 67.68 -73 67 C-72.34 67 -71.68 67 -71 67 C-70.67 65.02 -70.34 63.04 -70 61 C-70.66 61 -71.32 61 -72 61 C-73.80230168 57.17010894 -74.19622241 54.21878192 -74 50 C-74.9590625 49.814375 -74.9590625 49.814375 -75.9375 49.625 C-76.618125 49.41875 -77.29875 49.2125 -78 49 C-79.42041821 46.15916359 -79.31452272 44.14522722 -79 41 C-77.4375 38.6875 -77.4375 38.6875 -75 37 C-71.3125 36.3125 -71.3125 36.3125 -68 36 C-67.505 35.505 -67.505 35.505 -67 35 C-64.125 34.75 -64.125 34.75 -61 35 C-59.5625 36.25 -59.5625 36.25 -58 38 C-56.26921323 39.02565142 -54.53587699 40.04859549 -52.76953125 41.01171875 C-51 42 -51 42 -48.3125 43.8125 C-46.08339026 45.23568213 -46.08339026 45.23568213 -43.6875 44.6875 C-43.130625 44.460625 -42.57375 44.23375 -42 44 C-42.0825 42.783125 -42.165 41.56625 -42.25 40.3125 C-42.27471684 36.83360474 -42.04111557 36.06167336 -40 33 C-39.34 32.34 -38.68 31.68 -38 31 C-33.12637153 31.45336079 -30.60957611 32.7089159 -27 36 C-26.9071875 34.39125 -26.9071875 34.39125 -26.8125 32.75 C-26 29 -26 29 -23.8125 26.5625 C-20.58823227 24.77124015 -18.63195497 24.66214372 -15 25 C-14.01 27.31 -13.02 29.62 -12 32 C-9.90264123 28.85396185 -8.99755503 26.2165223 -7.87109375 22.6171875 C-7.27844727 20.74353516 -7.27844727 20.74353516 -6.67382812 18.83203125 C-6.2613276 17.51314311 -5.84922291 16.1941311 -5.4375 14.875 C-4.62740177 12.2878612 -3.81278573 9.7022649 -2.99609375 7.1171875 C-2.63700928 5.96847168 -2.2779248 4.81975586 -1.90795898 3.63623047 C-1 1 -1 1 0 0 Z M-73 41 C-73.33 42.32 -73.66 43.64 -74 45 C-73.01 44.01 -72.02 43.02 -71 42 C-71.66 41.67 -72.32 41.34 -73 41 Z M-34 52 C-33.34 53.65 -32.68 55.3 -32 57 C-31.67 55.68 -31.34 54.36 -31 53 C-31.99 52.67 -32.98 52.34 -34 52 Z M-59 68 C-58.70252495 76.31978434 -58.70252495 76.31978434 -54 83 C-52.68 82.67 -51.36 82.34 -50 82 C-50.33 81.360625 -50.66 80.72125 -51 80.0625 C-52.33056928 75.98763159 -52.16659199 72.24809575 -52 68 C-54.31 68 -56.62 68 -59 68 Z " fill="#FED8DB" transform="translate(114,0)"/>
<path d="M0 0 C0.66 0.268125 1.32 0.53625 2 0.8125 C4.34969008 1.74258566 6.70134426 2.66217146 9.0625 3.5625 C9.71347656 3.81128906 10.36445312 4.06007813 11.03515625 4.31640625 C13.00503019 5.00175007 14.97007227 5.5252953 17 6 C16.67 7.65 16.34 9.3 16 11 C15.319375 10.505 14.63875 10.01 13.9375 9.5 C10.40534991 7.69634889 7.91363009 7.76978647 4 8 C4 11.33762623 4.56766819 12.30885688 6.3125 15.0625 C6.74175781 15.75472656 7.17101562 16.44695312 7.61328125 17.16015625 C9.04220002 19.26688617 9.04220002 19.26688617 12 21 C12.30964122 23.74211123 12.45858019 26.31566635 12.5 29.0625 C12.94653658 40.28553061 15.3707707 48.37501716 23 57 C27.01857966 60.28669668 31.34730913 62.73141935 36 65 C35.21912565 69.80654698 34.34161295 74.59055539 33.4375 79.375 C33.22963867 80.47908203 33.22963867 80.47908203 33.01757812 81.60546875 C32.67894066 83.40375048 32.33954809 85.20188999 32 87 C35.3 87 38.6 87 42 87 C42.103125 85.700625 42.20625 84.40125 42.3125 83.0625 C42.848308 78.09839647 44.24930225 73.65751666 46 69 C50.16105246 69.36987133 53.76175412 69.75096331 56.79296875 72.80859375 C57.7756831 74.18540434 58.71941821 75.59125748 59.61328125 77.02734375 C62.26825559 80.80413823 65.66457026 82.6039532 70 84 C72.0959986 84.27876518 74.20262611 84.48588744 76.3125 84.625 C77.38113281 84.69976562 78.44976562 84.77453125 79.55078125 84.8515625 C80.76314453 84.92503906 80.76314453 84.92503906 82 85 C81.505 80.545 81.505 80.545 81 76 C79.5975 76.0825 78.195 76.165 76.75 76.25 C73.29697223 76.45311928 72.36687329 76.32195003 69.703125 73.984375 C69.14109375 73.32953125 68.5790625 72.6746875 68 72 C69.93625098 71.01836578 71.87404539 70.03977546 73.8125 69.0625 C74.89144531 68.51722656 75.97039062 67.97195312 77.08203125 67.41015625 C80 66 80 66 83 65 C84.02450239 62.81862203 84.02450239 62.81862203 85 60 C85.33386719 59.43152344 85.66773438 58.86304688 86.01171875 58.27734375 C89.330822 52.60575328 90.05900783 47.49408106 89 41 C87.6238868 37.16212029 85.94036774 33.58275043 84 30 C85.05960938 30.23589844 85.05960938 30.23589844 86.140625 30.4765625 C94.36665091 31.9824197 101.05733719 31.834031 108.16015625 27.19140625 C110 26 110 26 113 25 C110.75041666 22.41666771 110.75041666 22.41666771 108 20 C104.23510381 19.69361883 104.23510381 19.69361883 102.09765625 20.984375 C99.42989246 22.27602972 97.38935557 22.26606452 94.4375 22.25 C93.01244141 22.25773437 93.01244141 22.25773437 91.55859375 22.265625 C89 22 89 22 86 20 C87.0760095 13.54394299 87.0760095 13.54394299 89 11 C92.1953125 10.53125 92.1953125 10.53125 96.125 10.5 C102.42279302 10.30665985 106.68670803 9.47407552 112 6 C112.47953125 5.44054687 112.9590625 4.88109375 113.453125 4.3046875 C115 3 115 3 116.96875 3.00390625 C123.23175221 6.07518618 126.88436583 16.08418792 129.15625 22.390625 C129.57390625 23.68226562 129.57390625 23.68226562 130 25 C130.2990625 25.88171875 130.598125 26.7634375 130.90625 27.671875 C133.04394313 35.15380095 133.28163557 42.37921492 133.3125 50.125 C133.31797852 51.12611816 133.32345703 52.12723633 133.32910156 53.15869141 C133.15197323 71.7602207 126.17314804 89.60465428 113 103 C107.78166978 108.02998284 102.13905521 112.1644682 96 116 C94.83984375 116.72896484 94.83984375 116.72896484 93.65625 117.47265625 C82.04330036 124.15010229 70.88834176 125.60018959 57.6875 125.625 C57.00303802 125.63171722 56.31857605 125.63843445 55.6133728 125.64535522 C46.34277689 125.69818427 38.58203264 124.50916803 30 121 C28.77385986 120.51877686 28.77385986 120.51877686 27.52294922 120.02783203 C8.60463095 112.40469325 -4.98082541 97.43969542 -13 79 C-20.14136893 58.81885299 -20.70114193 37.51692283 -11.515625 17.81640625 C-8.14632731 11.5554175 -4.67315948 5.3921071 0 0 Z " fill="#92DBDC" transform="translate(52,92)"/>
<path d="M0 0 C0.99 0 1.98 0 3 0 C3.23148755 10.87991483 2.82265031 21.40977227 1.4375 32.20703125 C1.0926456 35.19679574 0.90569294 37.99985666 1 41 C2.16015625 40.4225 3.3203125 39.845 4.515625 39.25 C21.87777329 30.88824043 21.87777329 30.88824043 31 33 C33.82421875 34.35546875 33.82421875 34.35546875 36 36 C36 36.99 36 37.98 36 39 C36.66 39 37.32 39 38 39 C42.63421641 46.24096313 42.42691034 52.55666209 42 61 C49.07344964 64.3744379 49.07344964 64.3744379 56.4375 67 C59.97029266 68.37865079 61.21569443 69.64550553 63 73 C63.7427444 80.24918534 60.45484967 87.80541739 57 94 C54.0625 96.5 54.0625 96.5 51 98 C49.948125 98.721875 48.89625 99.44375 47.8125 100.1875 C40.20800077 105.08817728 28.65232934 105.07503844 19.95263672 103.42041016 C10.75065736 101.12677169 1.73288086 98.63314971 -6 93 C-13.51913022 88.67866079 -20.89887511 85.92783235 -29.26171875 83.76171875 C-32 83 -32 83 -33 82 C-34.89583546 81.97936104 -36.79231045 82.00888455 -38.6875 82.0625 C-43.18780793 82.09460683 -46.89342158 82.05328921 -51 80 C-53.46324069 76.30513897 -53.38991688 74.36706908 -53 70 C-51.9375 68.0625 -51.9375 68.0625 -50 67 C-46.3125 66.8125 -46.3125 66.8125 -43 67 C-43.99 66.67 -44.98 66.34 -46 66 C-45.34 64.35 -44.68 62.7 -44 61 C-42.68 61 -41.36 61 -40 61 C-40 61.99 -40 62.98 -40 64 C-39.34 64 -38.68 64 -38 64 C-38.50003416 62.03319899 -39.00092769 60.06660911 -39.5078125 58.1015625 C-40 56 -40 56 -40.3125 53.1875 C-41.29042188 50.07593037 -43.24553767 49.55379926 -46 48 C-46 47.01 -46 46.02 -46 45 C-44.02 44.505 -44.02 44.505 -42 44 C-42.12375 42.1746875 -42.12375 42.1746875 -42.25 40.3125 C-42.27471684 36.83360474 -42.04111557 36.06167336 -40 33 C-39.34 32.34 -38.68 31.68 -38 31 C-33.12637153 31.45336079 -30.60957611 32.7089159 -27 36 C-26.9071875 34.39125 -26.9071875 34.39125 -26.8125 32.75 C-26 29 -26 29 -23.8125 26.5625 C-20.58823227 24.77124015 -18.63195497 24.66214372 -15 25 C-14.01 27.31 -13.02 29.62 -12 32 C-9.90264123 28.85396185 -8.99755503 26.2165223 -7.87109375 22.6171875 C-7.27844727 20.74353516 -7.27844727 20.74353516 -6.67382812 18.83203125 C-6.2613276 17.51314311 -5.84922291 16.1941311 -5.4375 14.875 C-4.62740177 12.2878612 -3.81278573 9.7022649 -2.99609375 7.1171875 C-2.63700928 5.96847168 -2.2779248 4.81975586 -1.90795898 3.63623047 C-1 1 -1 1 0 0 Z M-34 52 C-33.34 53.65 -32.68 55.3 -32 57 C-31.67 55.68 -31.34 54.36 -31 53 C-31.99 52.67 -32.98 52.34 -34 52 Z " fill="#FBAEB7" transform="translate(114,0)"/>
<path d="M0 0 C6.46031078 -0.14298475 12.50435009 0.32997225 18.875 1.375 C20.13570312 1.56449219 20.13570312 1.56449219 21.421875 1.7578125 C22.22882813 1.88671875 23.03578125 2.015625 23.8671875 2.1484375 C24.59019043 2.26364746 25.31319336 2.37885742 26.05810547 2.49755859 C28 3 28 3 31 5 C37.20921025 5.7401071 41.74288449 5.50474367 47 2 C49.0625 2.625 49.0625 2.625 51 4 C52.11375 4.7425 52.11375 4.7425 53.25 5.5 C53.8275 5.995 54.405 6.49 55 7 C55 7.66 55 8.32 55 9 C52.8828125 10.47265625 52.8828125 10.47265625 50.125 12.0625 C49.22007812 12.58972656 48.31515625 13.11695312 47.3828125 13.66015625 C43.56242824 15.80833953 41.4804056 16.11069533 37.0625 16.0625 C36.00160156 16.05347656 34.94070312 16.04445313 33.84765625 16.03515625 C32.90792969 16.02355469 31.96820313 16.01195313 31 16 C30.01 16 29.02 16 28 16 C28.28875 16.52207031 28.5775 17.04414062 28.875 17.58203125 C31.98686102 23.75172793 33.12157699 29.12550655 32 36 C28.14299144 47.11261072 21.13456482 51.83509919 11 57 C15.06725434 59.7115029 18.1547611 59.57867488 23 60 C23.495 64.455 23.495 64.455 24 69 C16.49782425 69.45013054 10.18220941 69.69235264 4 65 C-2.71606648 58.85447315 -9.50322539 48.85780063 -10.28125 39.68359375 C-9.95942275 35.46855068 -8.93336606 32.0100676 -7.5 28.0625 C-7.14228516 27.03672852 -7.14228516 27.03672852 -6.77734375 25.99023438 C-6.19454118 24.32341903 -5.59862949 22.66119684 -5 21 C-4.34 21 -3.68 21 -3 21 C-3 21.66 -3 22.32 -3 23 C-1.68 22.67 -0.36 22.34 1 22 C1 20.35 1 18.7 1 17 C1.66 16.67 2.32 16.34 3 16 C3 14.68 3 13.36 3 12 C2.319375 11.608125 1.63875 11.21625 0.9375 10.8125 C-0.0215625 9.9153125 -0.0215625 9.9153125 -1 9 C-1.06047291 5.9213793 -0.53884679 3.02137775 0 0 Z " fill="#FDB3BA" transform="translate(110,108)"/>
<path d="M0 0 C2.81640625 1.359375 2.81640625 1.359375 5 3 C5 3.99 5 4.98 5 6 C5.66 6 6.32 6 7 6 C11.45695946 12.96399916 12.49180949 19.81520737 11 28 C9.1402365 30.86622375 7.27179059 32.08060148 4 33 C0.1875 33 0.1875 33 -3 32 C-3.66 31.01 -4.32 30.02 -5 29 C-6.96633596 29 -8.93353328 29.00700763 -10.8984375 29.08203125 C-14.12927164 28.95592062 -16.31940412 27.72324021 -19 26 C-21 23 -21 23 -21 19 C-22.093125 18.855625 -23.18625 18.71125 -24.3125 18.5625 C-28 18 -28 18 -31 17 C-31 17.99 -31 18.98 -31 20 C-35.29 20 -39.58 20 -44 20 C-42 16 -42 16 -40 13 C-40.77085938 12.97421875 -41.54171875 12.9484375 -42.3359375 12.921875 C-43.84027344 12.83679688 -43.84027344 12.83679688 -45.375 12.75 C-46.87160156 12.68039063 -46.87160156 12.68039063 -48.3984375 12.609375 C-51 12 -51 12 -52.3515625 9.953125 C-52.56554687 9.30859375 -52.77953125 8.6640625 -53 8 C-49.10188936 7.92503633 -45.75860391 8.05342833 -42 9 C-34.21075886 9.89331634 -28.96224167 8.06026807 -22.125 4.5 C-14.86760803 0.97954781 -8.21175758 -2.07623044 0 0 Z " fill="#4844BC" transform="translate(145,33)"/>
<path d="M0 0 C3.63569643 0.29085571 3.81364072 0.66127761 6.125 3.25 C7.85802712 4.24488594 9.59197079 5.23846471 11.33984375 6.20703125 C13.82705507 7.66017222 15.99579526 9.31435933 18.125 11.25 C18.125 11.91 18.125 12.57 18.125 13.25 C18.90875 13.53875 19.6925 13.8275 20.5 14.125 C23.125 15.25 23.125 15.25 25.125 17.25 C25.16580783 19.24958364 25.16754356 21.25045254 25.125 23.25 C25.455 23.58 25.785 23.91 26.125 24.25 C26.16563832 25.91617115 26.167721 27.58388095 26.125 29.25 C25.465 29.25 24.805 29.25 24.125 29.25 C23.63 27.765 23.63 27.765 23.125 26.25 C20.01167752 26.91868314 20.01167752 26.91868314 18.9375 29.3125 C18.669375 29.951875 18.40125 30.59125 18.125 31.25 C19.445 31.58 20.765 31.91 22.125 32.25 C21.795 32.58 21.465 32.91 21.125 33.25 C19.18746456 33.25 17.24978526 33.24597869 15.3125 33.21484375 C12.8740001 33.2039133 12.8740001 33.2039133 9.5 33.8125 C6.0806947 34.25574328 3.47398167 33.98514232 0.125 33.25 C-1.5233633 35.00244247 -1.5233633 35.00244247 -2.875 37.25 C-2.68946109 39.24427359 -2.68946109 39.24427359 -1.875 41.25 C-1.53439189 42.91519519 -1.19941604 44.58157466 -0.875 46.25 C-2.195 46.91 -3.515 47.57 -4.875 48.25 C-6.86586217 47.0398681 -8.8424099 45.80616248 -10.8125 44.5625 C-11.91464844 43.87800781 -13.01679687 43.19351563 -14.15234375 42.48828125 C-16.875 40.25 -16.875 40.25 -17.87890625 37.60546875 C-17.875 35.25 -17.875 35.25 -15.875 33.25 C-12.25 33.625 -12.25 33.625 -8.875 34.25 C-8.875 33.59 -8.875 32.93 -8.875 32.25 C-8.215 32.25 -7.555 32.25 -6.875 32.25 C-6.545 30.27 -6.215 28.29 -5.875 26.25 C-6.535 26.25 -7.195 26.25 -7.875 26.25 C-9.67730168 22.42010894 -10.07122241 19.46878192 -9.875 15.25 C-10.514375 15.12625 -11.15375 15.0025 -11.8125 14.875 C-12.493125 14.66875 -13.17375 14.4625 -13.875 14.25 C-15.29541821 11.40916359 -15.18952272 9.39522722 -14.875 6.25 C-13.3125 3.9375 -13.3125 3.9375 -10.875 2.25 C-7.1875 1.5625 -7.1875 1.5625 -3.875 1.25 C-2.875 0.25 -2.875 0.25 0 0 Z M-8.875 6.25 C-9.205 7.57 -9.535 8.89 -9.875 10.25 C-8.885 9.26 -7.895 8.27 -6.875 7.25 C-7.535 6.92 -8.195 6.59 -8.875 6.25 Z " fill="#F9C804" transform="translate(49.875,34.75)"/>
<path d="M0 0 C1.65 0.33 3.3 0.66 5 1 C5.10957031 1.67546875 5.21914063 2.3509375 5.33203125 3.046875 C5.49058594 3.93890625 5.64914063 4.8309375 5.8125 5.75 C5.96332031 6.63171875 6.11414062 7.5134375 6.26953125 8.421875 C7.07583759 11.26766209 7.89776952 12.91741654 10 15 C13.69098802 14.82614386 13.69098802 14.82614386 16.33203125 14.375 C24.2218545 13.26603509 30.80337289 13.40168644 38 17 C39.59732201 17.48164565 41.20235337 17.93813851 42.8125 18.375 C48.17320908 19.92894788 53.23194093 22.0813699 58 25 C58.495 25.99 58.495 25.99 59 27 C51.90116066 25.85210257 45.58341381 23.88549626 39 21 C38.67 21.66 38.34 22.32 38 23 C38 22.01 38 21.02 38 20 C34.58910995 21.19842083 32.32584371 22.21896436 30 25 C28.88182325 27.53645241 27.98361671 30.1089876 27.0625 32.72265625 C26 35 26 35 23 37 C20.3125 37.125 20.3125 37.125 18 37 C18.33 35.02 18.66 33.04 19 31 C17.906875 30.95875 16.81375 30.9175 15.6875 30.875 C9.31925929 30.05768568 2.60006272 27.07918976 -1.58984375 22.1171875 C-2.97095987 19.76781559 -4 17.76329969 -4 15 C-3.34 14.67 -2.68 14.34 -2 14 C-2.67564153 10.43460026 -2.67564153 10.43460026 -3.8125 7 C-4 5 -4 5 -2.0625 2.25 C-1.381875 1.5075 -0.70125 0.765 0 0 Z " fill="#FDF8F9" transform="translate(50,67)"/>
<path d="M0 0 C4.79816849 0.45265741 7.75042158 2.58677527 10.953125 6.125 C13.50370437 10.22938059 13.10750835 14.67067706 12.3125 19.3125 C9.80876542 24.42011855 6.41165873 27.79291569 1.3125 30.3125 C-5.83612026 31.4957199 -11.45197932 30.71832877 -17.359375 26.50390625 C-17.79765625 26.11074219 -18.2359375 25.71757812 -18.6875 25.3125 C-18.6875 24.9825 -18.6875 24.6525 -18.6875 24.3125 C-16.9859375 23.8484375 -16.9859375 23.8484375 -15.25 23.375 C-11.89974901 22.68325469 -11.89974901 22.68325469 -10.6875 21.3125 C-10.42456944 17.28089809 -10.39345156 15.75357266 -12.6875 12.3125 C-13.22534861 7.14915339 -13.22534861 7.14915339 -11.5625 4.5625 C-9.08629716 2.9116981 -6.52237583 2.1752883 -3.6875 1.3125 C-2.6875 0.3125 -2.6875 0.3125 0 0 Z " fill="#4646BA" transform="translate(156.6875,126.6875)"/>
<path d="M0 0 C5.06483153 0.9965525 9.85117402 2.20141955 14.671875 4.08984375 C24.46373814 7.91787078 34.38293513 11.08784298 44.48046875 13.984375 C46.66596133 14.61503879 48.84206043 15.28068681 51 16 C50.125 20.75 50.125 20.75 49 23 C42.92720659 23.24257715 37.33381861 22.30317659 31.375 21.1875 C20.28427779 19.17868227 9.16691376 17.52118949 -2 16 C-1.85936865 13.70800823 -1.71234057 11.41640814 -1.5625 9.125 C-1.48128906 7.84882812 -1.40007812 6.57265625 -1.31640625 5.2578125 C-1 2 -1 2 0 0 Z " fill="#FEFCFD" transform="translate(89,88)"/>
<path d="M0 0 C2.97878953 -0.42554136 5.12475641 -0.61020504 7.6640625 1.16015625 C10.69342367 4.07759521 13.10167595 6.8078211 14 11 C13.52399982 17.21520229 11.99533454 22.63684266 9.9375 28.5 C9.65583984 29.32242188 9.37417969 30.14484375 9.08398438 30.9921875 C8.39622757 32.99717343 7.69908924 34.99893723 7 37 C5.2282281 36.93983797 3.45741321 36.85100672 1.6875 36.75 C0.70136719 36.70359375 -0.28476563 36.6571875 -1.30078125 36.609375 C-4 36 -4 36 -5.83203125 34.17578125 C-7.54212601 30.99008633 -7.38723829 28.54968437 -7 25 C-5.9375 23.0625 -5.9375 23.0625 -4 22 C-0.3125 21.8125 -0.3125 21.8125 3 22 C2.01 21.67 1.02 21.34 0 21 C0.66 19.35 1.32 17.7 2 16 C3.32 16 4.64 16 6 16 C6 16.99 6 17.98 6 19 C6.66 19 7.32 19 8 19 C7.49996584 17.03319899 6.99907231 15.06660911 6.4921875 13.1015625 C6 11 6 11 5.6875 8.1875 C4.70957812 5.07593037 2.75446233 4.55379926 0 3 C0 2.01 0 1.02 0 0 Z " fill="#4E4AB8" transform="translate(68,45)"/>
<path d="M0 0 C0.99 0 1.98 0 3 0 C3.35743045 10.48462666 2.88237608 20.64693922 1.5625 31.0625 C1.42803467 32.12726562 1.29356934 33.19203125 1.1550293 34.2890625 C0.14163602 41.85836398 0.14163602 41.85836398 -1 43 C-2.64340867 43.09854655 -4.2911461 43.12972411 -5.9375 43.125 C-6.83339844 43.12757812 -7.72929688 43.13015625 -8.65234375 43.1328125 C-11 43 -11 43 -13 42 C-10.99470661 32.55469126 -8.37499749 23.42418587 -5.375 14.25 C-4.96312035 12.96888538 -4.55166017 11.68763582 -4.140625 10.40625 C-1.13710317 1.13710317 -1.13710317 1.13710317 0 0 Z " fill="#FDE27A" transform="translate(114,0)"/>
<path d="M0 0 C1.65 0.33 3.3 0.66 5 1 C5.14695312 1.99580078 5.14695312 1.99580078 5.296875 3.01171875 C6.21825679 8.45263709 7.12378775 11.87370954 11 16 C11.33 16.99 11.66 17.98 12 19 C14.10584438 19.80563638 14.10584438 19.80563638 16.5625 20.1875 C18.026875 20.455625 19.49125 20.72375 21 21 C20.67 23.97 20.34 26.94 20 30 C11.97051612 30.7897853 6.483018 28.84642551 0 24 C-2.26656976 21.30356356 -4 18.64169439 -4 15 C-3.34 14.67 -2.68 14.34 -2 14 C-2.67564153 10.43460026 -2.67564153 10.43460026 -3.8125 7 C-4 5 -4 5 -2.0625 2.25 C-1.381875 1.5075 -0.70125 0.765 0 0 Z " fill="#FC8A9C" transform="translate(50,67)"/>
<path d="M0 0 C0.02685412 2.31243792 0.04632841 4.6249627 0.0625 6.9375 C0.07410156 8.22527344 0.08570313 9.51304688 0.09765625 10.83984375 C0 14 0 14 -1 15 C-2.5778125 15.0309375 -2.5778125 15.0309375 -4.1875 15.0625 C-8.99658058 16.2450608 -9.99402323 18.04238271 -12.54296875 22.08984375 C-14.66748637 24.87506926 -16.68528734 25.79586717 -20.11328125 26.328125 C-22.72066011 26.23550053 -24.57185495 25.99814688 -27 25 C-29.84110258 21.94633318 -31.95431198 18.62435402 -34 15 C-33.34 14.01 -32.68 13.02 -32 12 C-27.809206 11.44649891 -25.78642408 11.40081975 -22.375 14 C-21.59125 14.66 -20.8075 15.32 -20 16 C-16.20070529 16.54275639 -15.2756917 16.18379446 -12 14 C-10.9135642 11.72422453 -10.9135642 11.72422453 -10.0625 9.125 C-7.89452419 3.42066821 -6.58537362 0 0 0 Z " fill="#FD3D87" transform="translate(88,87)"/>
<path d="M0 0 C5.875 0.875 5.875 0.875 7 2 C7.45459858 4.65463121 7.70243238 7.32189138 8 10 C9.65 10.33 11.3 10.66 13 11 C13.4640625 10.0409375 13.4640625 10.0409375 13.9375 9.0625 C15 7 15 7 16 6 C18.33944736 6.28730055 20.6739143 6.61936779 23 7 C23.8475276 9.71208831 24.30016859 11.23120353 24 14 C22.11103299 17.13917928 19.90855057 19.76488629 17 22 C15.68 22 14.36 22 13 22 C12.773125 21.071875 12.54625 20.14375 12.3125 19.1875 C11.24823062 15.95689408 11.24823062 15.95689408 8.9375 14.125 C5.41750303 12.77691605 2.61945255 12.80698083 -1.109375 12.9921875 C-1.73328125 12.99476562 -2.3571875 12.99734375 -3 13 C-4 12 -4 12 -4.3125 8.75 C-3.95628972 4.47547661 -2.93261437 3.02425856 0 0 Z " fill="#10090B" transform="translate(130,76)"/>
<path d="M0 0 C4.81036162 9.29039797 4.81036162 9.29039797 3 15 C2.67 15.66 2.34 16.32 2 17 C-6.49066638 17.89028347 -6.49066638 17.89028347 -9.84765625 15.91015625 C-11.25 14.4375 -11.25 14.4375 -13 11 C-12.55953272 6.7421496 -11.64788951 4.7018803 -8.75 1.5625 C-5.56037306 -0.24978804 -3.61129927 -0.33593482 0 0 Z " fill="#FC8A9E" transform="translate(99,25)"/>
<path d="M0 0 C4.455 0.99 4.455 0.99 9 2 C7.68 8.27 6.36 14.54 5 21 C1.7 21 -1.6 21 -5 21 C-3.91891892 3.91891892 -3.91891892 3.91891892 0 0 Z " fill="#FA8EA1" transform="translate(89,158)"/>
<path d="M0 0 C2.64 1.32 5.28 2.64 8 4 C7.154375 4.9075 6.30875 5.815 5.4375 6.75 C3.35735085 9.08110334 3.35735085 9.08110334 3.125 12.0625 C3.41375 12.701875 3.7025 13.34125 4 14 C4.34060811 15.66519519 4.67558396 17.33157466 5 19 C3.02 19.99 3.02 19.99 1 21 C-0.99086217 19.7898681 -2.9674099 18.55616248 -4.9375 17.3125 C-6.03964844 16.62800781 -7.14179687 15.94351563 -8.27734375 15.23828125 C-11 13 -11 13 -12.00390625 10.35546875 C-12 8 -12 8 -10 6 C-6.375 6.375 -6.375 6.375 -3 7 C-3 6.34 -3 5.68 -3 5 C-2.34 5 -1.68 5 -1 5 C-0.67 3.35 -0.34 1.7 0 0 Z " fill="#F6BF0A" transform="translate(44,62)"/>
<path d="M0 0 C0.67546875 0.28875 1.3509375 0.5775 2.046875 0.875 C2.93890625 1.24625 3.8309375 1.6175 4.75 2 C6.07257813 2.556875 6.07257813 2.556875 7.421875 3.125 C10.17753771 4.21425883 10.17753771 4.21425883 14 4 C13.32829194 7.8063457 12.27253436 11.35206816 11 15 C9.2282281 14.93983797 7.45741321 14.85100672 5.6875 14.75 C4.20830078 14.68039063 4.20830078 14.68039063 2.69921875 14.609375 C0 14 0 14 -1.83203125 12.17578125 C-3.54212601 8.99008633 -3.38723829 6.54968437 -3 3 C-1.4765625 1.28515625 -1.4765625 1.28515625 0 0 Z " fill="#4644BD" transform="translate(64,67)"/>
<path d="M0 0 C1.10794922 -0.02416992 1.10794922 -0.02416992 2.23828125 -0.04882812 C7.5211647 -0.05348675 11.00079259 1.0262669 15.75 3.3125 C17.34490249 3.80209797 18.94875292 4.26413194 20.5625 4.6875 C25.92320908 6.24144788 30.98194093 8.3938699 35.75 11.3125 C36.245 12.3025 36.245 12.3025 36.75 13.3125 C29.65116066 12.16460257 23.33341381 10.19799626 16.75 7.3125 C16.42 7.9725 16.09 8.6325 15.75 9.3125 C15.75 8.3225 15.75 7.3325 15.75 6.3125 C15.03457031 6.17972656 14.31914063 6.04695313 13.58203125 5.91015625 C10.80811678 5.32476465 8.14700725 4.58091556 5.4375 3.75 C4.55449219 3.48058594 3.67148438 3.21117188 2.76171875 2.93359375 C2.09785156 2.72863281 1.43398437 2.52367188 0.75 2.3125 C0.42 3.9625 0.09 5.6125 -0.25 7.3125 C-3.55 6.9825 -6.85 6.6525 -10.25 6.3125 C-10.58 4.9925 -10.91 3.6725 -11.25 2.3125 C-7.46108692 -0.21344205 -4.38866748 -0.01875499 0 0 Z " fill="#FED5D9" transform="translate(72.25,80.6875)"/>
<path d="M0 0 C1 1 1 1 1.0625 3.5625 C1.041875 4.366875 1.02125 5.17125 1 6 C-2.64223672 7.82111836 -7.01141343 7.35446207 -11.03125 7.5234375 C-12.0109375 7.68070313 -12.990625 7.83796875 -14 8 C-14.99 9.485 -14.99 9.485 -16 11 C-20.3177458 10.49202991 -24.03302114 9.80317221 -28 8 C-28 7.34 -28 6.68 -28 6 C-27.23816406 5.81824219 -26.47632812 5.63648438 -25.69140625 5.44921875 C-20.77481333 4.25229538 -15.94655433 3.04156818 -11.1875 1.3125 C-7.26861254 -0.05090165 -4.13414199 -0.34451183 0 0 Z " fill="#1D0D31" transform="translate(140,41)"/>
<path d="M0 0 C2.73821612 1.27889551 4.96324035 2.75713967 7 5 C7.4375 7.8125 7.4375 7.8125 7 10 C7.66 10.33 8.32 10.66 9 11 C-0.9519573 11.58540925 -0.9519573 11.58540925 -5 8 C-6.53614511 5.72610099 -7.74901732 3.45563268 -9 1 C-5.84017111 -0.57991444 -3.49944139 -0.34420735 0 0 Z " fill="#F3387F" transform="translate(136,88)"/>
<path d="M0 0 C0.99 0 1.98 0 3 0 C3.02689449 2.95839355 3.04678741 5.91654427 3.0625 8.875 C3.07087891 9.71675781 3.07925781 10.55851563 3.08789062 11.42578125 C3.09111328 12.23144531 3.09433594 13.03710938 3.09765625 13.8671875 C3.10289307 14.61081543 3.10812988 15.35444336 3.11352539 16.12060547 C3 18 3 18 2 20 C-0.25364048 19.6114413 -1.81462155 19.12697154 -3.7109375 17.828125 C-5 16 -5 16 -4.70703125 13.22265625 C-4.41183594 12.17980469 -4.11664063 11.13695312 -3.8125 10.0625 C-3.53019531 9.02222656 -3.24789062 7.98195313 -2.95703125 6.91015625 C-2.14606821 4.4441666 -1.24227109 2.27111235 0 0 Z " fill="#FBCA02" transform="translate(114,0)"/>
<path d="M0 0 C0 0.66 0 1.32 0 2 C0.99 2 1.98 2 3 2 C3.66 1.34 4.32 0.68 5 0 C5.05441656 1.89551022 5.09298035 3.7914792 5.125 5.6875 C5.14820313 6.74324219 5.17140625 7.79898438 5.1953125 8.88671875 C4.99858729 12.02251859 4.33057654 14.17645373 3 17 C-1.8 14.53846154 -1.8 14.53846154 -2.8125 11.8125 C-2.874375 11.214375 -2.93625 10.61625 -3 10 C-2.01 10 -1.02 10 0 10 C0 9.01 0 8.02 0 7 C-1.32 7 -2.64 7 -4 7 C-4 5.68 -4 4.36 -4 3 C-4.66 3 -5.32 3 -6 3 C-6 2.34 -6 1.68 -6 1 C-3.92446352 0.4465236 -2.15634036 0 0 0 Z " fill="#F3ABB4" transform="translate(136,134)"/>
<path d="M0 0 C2.64 0 5.28 0 8 0 C9.07525194 2.65228812 10.09456151 5.28368454 11 8 C10.401875 8.103125 9.80375 8.20625 9.1875 8.3125 C6.71756736 9.08876455 5.67748765 10.07088921 4 12 C3.34 11.01 2.68 10.02 2 9 C0.68 8.67 -0.64 8.34 -2 8 C-1.34 5.36 -0.68 2.72 0 0 Z " fill="#FCE175" transform="translate(51,47)"/>
<path d="M0 0 C3.3 0 6.6 0 10 0 C10.25 5.625 10.25 5.625 8 9 C5 9.375 5 9.375 2 9 C-0.29013653 5.5647952 -0.17842973 4.014669 0 0 Z " fill="#514CC1" transform="translate(84,179)"/>
<path d="M0 0 C2 3.75 2 3.75 2 6 C4.475 6.99 4.475 6.99 7 8 C6.38125 8.391875 5.7625 8.78375 5.125 9.1875 C2.67503632 11.27717491 1.98120002 12.97463327 1 16 C-0.70840281 14.36587557 -1.93453047 13.13093906 -3 11 C-4.64363134 10.27840576 -6.31050386 9.60648579 -8 9 C-7.67 8.34 -7.34 7.68 -7 7 C-4.4375 6.375 -4.4375 6.375 -2 6 C-1.34 4.02 -0.68 2.04 0 0 Z " fill="#F2FAFA" transform="translate(51,144)"/>
<path d="M0 0 C2.625 0.25 2.625 0.25 4.4375 1.4375 C6.02699375 3.8635694 5.98987512 5.40397406 5.625 8.25 C3.625 10.25 3.625 10.25 0.5 10.375 C-0.44875 10.33375 -1.3975 10.2925 -2.375 10.25 C-2.705 9.59 -3.035 8.93 -3.375 8.25 C-3.045 7.26 -2.715 6.27 -2.375 5.25 C-3.035 5.25 -3.695 5.25 -4.375 5.25 C-3.26717391 0.34391304 -3.26717391 0.34391304 0 0 Z " fill="#24142E" transform="translate(112.375,59.75)"/>
<path d="M0 0 C2.375 1.625 2.375 1.625 4 4 C4.61195145 7.6717087 4.48706506 9.28813568 2.375 12.375 C-0.6037896 14.4131192 -2.46322336 14.32152515 -6 14 C-6 13.67 -6 13.34 -6 13 C-5.030625 12.690625 -4.06125 12.38125 -3.0625 12.0625 C-0.15934208 11.30476658 -0.15934208 11.30476658 1 10 C1.2500773 7.54190002 1.2500773 7.54190002 1 5 C-0.83883881 2.71271266 -0.83883881 2.71271266 -3.625 2.875 C-4.40875 2.91625 -5.1925 2.9575 -6 3 C-6.66 4.32 -7.32 5.64 -8 7 C-7.34 7 -6.68 7 -6 7 C-6 7.99 -6 8.98 -6 10 C-6.66 10 -7.32 10 -8 10 C-8.33 10.66 -8.66 11.32 -9 12 C-10 11 -10 11 -10.3125 7.6875 C-10 4 -10 4 -8.375 1.5625 C-5.28314769 -0.47161336 -3.63632575 -0.60605429 0 0 Z " fill="#EEE3E6" transform="translate(116,58)"/>
<path d="M0 0 C6.41829962 1.79775468 12.75158187 3.8595166 19.0625 6 C19.8248999 6.2489502 20.5872998 6.49790039 21.37280273 6.75439453 C23.28206209 7.41273009 25.14664961 8.19764763 27 9 C27.33 9.99 27.66 10.98 28 12 C17.97763678 10.51438421 8.07641881 7.28165907 0 1 C0 0.67 0 0.34 0 0 Z " fill="#FEA0B2" transform="translate(112,92)"/>
<path d="M0 0 C1.49080078 0.16628906 1.49080078 0.16628906 3.01171875 0.3359375 C3.77097656 0.43132812 4.53023437 0.52671875 5.3125 0.625 C4.3225 1.12 4.3225 1.12 3.3125 1.625 C2.65694881 4.15233235 2.65694881 4.15233235 2.3125 6.625 C-0.9875 6.295 -4.2875 5.965 -7.6875 5.625 C-8.0175 4.305 -8.3475 2.985 -8.6875 1.625 C-5.1388865 -0.74074234 -4.1110475 -0.48365265 0 0 Z " fill="#93CFD8" transform="translate(69.6875,81.375)"/>
<path d="M0 0 C0.99 0 1.98 0 3 0 C4.38694405 1.62373938 5.76692331 3.25410594 7.10546875 4.91796875 C10.05574989 8.16023648 13.52663161 10.67559807 17.0234375 13.30078125 C17.67570312 13.86152344 18.32796875 14.42226563 19 15 C19 15.66 19 16.32 19 17 C18.4225 16.690625 17.845 16.38125 17.25 16.0625 C15.15705816 15.07416636 13.25464725 14.4831387 11 14 C11 13.34 11 12.68 11 12 C10.12601563 11.61134766 10.12601563 11.61134766 9.234375 11.21484375 C6.83656162 9.91113752 5.18243206 8.48254467 3.25 6.5625 C2.63640625 5.96566406 2.0228125 5.36882813 1.390625 4.75390625 C0 3 0 3 0 0 Z " fill="#FB95AB" transform="translate(72,41)"/>
<path d="M0 0 C0.33 0 0.66 0 1 0 C1 2.97 1 5.94 1 9 C2.98 7.35 4.96 5.7 7 4 C7.66 4.33 8.32 4.66 9 5 C6.375 11.75 6.375 11.75 3 14 C0.3125 14.125 0.3125 14.125 -2 14 C-1.67 12.02 -1.34 10.04 -1 8 C-2.32 7.67 -3.64 7.34 -5 7 C-3.35 7 -1.7 7 0 7 C0 4.69 0 2.38 0 0 Z " fill="#F9CCD3" transform="translate(70,90)"/>
<path d="M0 0 C2.875 -0.125 2.875 -0.125 6 0 C8 2 8 2 8.3125 4.5 C8.1578125 5.7375 8.1578125 5.7375 8 7 C5 9 5 9 1 9 C-0.4783226 6.04335481 -0.06032783 3.25770263 0 0 Z " fill="#4F4EC2" transform="translate(133,167)"/>
<path d="M0 0 C2.5625 0.1875 2.5625 0.1875 4.5625 2.1875 C4.6875 4.8125 4.6875 4.8125 4.5625 7.1875 C2.5825 8.1775 2.5825 8.1775 0.5625 9.1875 C-1.0875 7.8675 -2.7375 6.5475 -4.4375 5.1875 C-3.32386364 0.25568182 -3.32386364 0.25568182 0 0 Z " fill="#514DC1" transform="translate(163.4375,105.8125)"/>
<path d="M0 0 C0.66 0.33 1.32 0.66 2 1 C2.33 1.99 2.66 2.98 3 4 C4.99665314 5.68538601 4.99665314 5.68538601 7 7 C5.35 7.33 3.7 7.66 2 8 C1.67 9.32 1.34 10.64 1 12 C0.62875 11.0409375 0.62875 11.0409375 0.25 10.0625 C-0.81562433 7.81258459 -0.81562433 7.81258459 -3.125 7.25 C-3.74375 7.1675 -4.3625 7.085 -5 7 C-4.360625 6.21625 -3.72125 5.4325 -3.0625 4.625 C-1.01857687 2.20460719 -1.01857687 2.20460719 0 0 Z " fill="#F0FAFA" transform="translate(128,195)"/>
<path d="M0 0 C3.98381075 2.16264012 6.88983545 4.71211176 10 8 C8.37509046 8.02698189 6.75005367 8.04638757 5.125 8.0625 C3.76761719 8.07990234 3.76761719 8.07990234 2.3828125 8.09765625 C0 8 0 8 -2 7 C-1.34 4.69 -0.68 2.38 0 0 Z " fill="#F9C708" transform="translate(103,35)"/>
<path d="M0 0 C2.5 0.125 2.5 0.125 3.5 1.125 C3.54080783 3.12458364 3.54254356 5.12545254 3.5 7.125 C1.5085944 7.50633299 -0.49279077 7.83825582 -2.5 8.125 C-3.5 7.125 -3.5 7.125 -3.625 4.125 C-3.46033403 0.1730167 -3.46033403 0.1730167 0 0 Z " fill="#260B15" transform="translate(149.5,66.875)"/>
<path d="M0 0 C4.92947689 -0.10150789 9.56533119 0.25757428 14.4375 1 C16.29181641 1.2784375 16.29181641 1.2784375 18.18359375 1.5625 C19.11300781 1.706875 20.04242188 1.85125 21 2 C21 2.33 21 2.66 21 3 C20.06027344 3.09087891 20.06027344 3.09087891 19.1015625 3.18359375 C17.87566406 3.30927734 17.87566406 3.30927734 16.625 3.4375 C15.81289062 3.51871094 15.00078125 3.59992187 14.1640625 3.68359375 C11.95727195 3.89090114 11.95727195 3.89090114 10 5 C7.25350955 5.02860928 4.64448803 4.75076567 2 4 C0.5 1.9375 0.5 1.9375 0 0 Z " fill="#6759AD" transform="translate(92,41)"/>
<path d="M0 0 C0.598125 0.226875 1.19625 0.45375 1.8125 0.6875 C1.85504356 2.68704746 1.85330783 4.68791636 1.8125 6.6875 C0.8125 7.6875 0.8125 7.6875 -1.75 7.75 C-2.554375 7.729375 -3.35875 7.70875 -4.1875 7.6875 C-4.875 5.375 -4.875 5.375 -5.1875 2.6875 C-3.60587179 0.1901923 -2.97595617 -0.4251366 0 0 Z " fill="#1B0D11" transform="translate(167.1875,72.3125)"/>
<path d="M0 0 C0.33 0.66 0.66 1.32 1 2 C2.31541466 2.70136047 3.65283513 3.36174532 5 4 C6.60030557 4.951175 8.18352783 5.93157915 9.75 6.9375 C10.94882812 7.69353516 10.94882812 7.69353516 12.171875 8.46484375 C13.07679687 9.22474609 13.07679687 9.22474609 14 10 C14 10.99 14 11.98 14 13 C3.3255814 7.3255814 3.3255814 7.3255814 0 4 C0 2.68 0 1.36 0 0 Z " fill="#FBC700" transform="translate(32,70)"/>
<path d="M0 0 C0.99 0.33 1.98 0.66 3 1 C3 1.99 3 2.98 3 4 C3.66 4 4.32 4 5 4 C3.125 7.875 3.125 7.875 2 9 C0.00041636 9.04080783 -2.00045254 9.04254356 -4 9 C-2.68 8.34 -1.36 7.68 0 7 C-0.99 6.67 -1.98 6.34 -3 6 C-1.125 1.125 -1.125 1.125 0 0 Z " fill="#DAB120" transform="translate(71,60)"/>
<path d="M0 0 C2.31 0.33 4.62 0.66 7 1 C7.33 2.32 7.66 3.64 8 5 C5.6739143 5.38063221 3.33944736 5.71269945 1 6 C0 5 0 5 -0.0625 2.4375 C-0.041875 1.633125 -0.02125 0.82875 0 0 Z " fill="#FF3D85" transform="translate(103,79)"/>
<path d="M0 0 C0 0.66 0 1.32 0 2 C0.99 2 1.98 2 3 2 C3 4 3 4 1.75 5.625 C0 7 0 7 -4 7 C-4 5.68 -4 4.36 -4 3 C-4.66 3 -5.32 3 -6 3 C-6 2.34 -6 1.68 -6 1 C-3.92446352 0.4465236 -2.15634036 0 0 0 Z " fill="#FF4589" transform="translate(136,134)"/>
<path d="M0 0 C0.99 0 1.98 0 3 0 C3.144375 1.093125 3.28875 2.18625 3.4375 3.3125 C3.88288104 6.93122987 3.88288104 6.93122987 5 10 C3.0625 9.625 3.0625 9.625 1 9 C-0.4783226 6.04335481 -0.06032783 3.25770263 0 0 Z " fill="#FCE070" transform="translate(43,49)"/>
<path d="M0 0 C1.65 0.33 3.3 0.66 5 1 C5 1.99 5 2.98 5 4 C2.36 4.33 -0.28 4.66 -3 5 C-2.01 3.35 -1.02 1.7 0 0 Z " fill="#5C52B5" transform="translate(50,67)"/>
<path d="M0 0 C0.66 0 1.32 0 2 0 C2.32152515 3.53677664 2.4131192 5.3962104 0.375 8.375 C-2.6037896 10.4131192 -4.46322336 10.32152515 -8 10 C-8 9.67 -8 9.34 -8 9 C-7.05125 8.814375 -6.1025 8.62875 -5.125 8.4375 C-1.61628301 7.26599195 -1.61628301 7.26599195 -0.625 3.375 C-0.41875 2.26125 -0.2125 1.1475 0 0 Z " fill="#FAEBED" transform="translate(118,62)"/>
<path d="M0 0 C1.625 2 1.625 2 3 4 C1.35 4.66 -0.3 5.32 -2 6 C-2.99 5.01 -3.98 4.02 -5 3 C-2.25 0 -2.25 0 0 0 Z " fill="#E6F6F7" transform="translate(159,175)"/>
<path d="M0 0 C0.66 0 1.32 0 2 0 C2 1.65 2 3.3 2 5 C0.35 5.33 -1.3 5.66 -3 6 C-1.125 1.125 -1.125 1.125 0 0 Z " fill="#645AA2" transform="translate(71,60)"/>
<path d="M0 0 C2.97 0.495 2.97 0.495 6 1 C5.67 2.65 5.34 4.3 5 6 C2.5 4.6875 2.5 4.6875 0 3 C0 2.01 0 1.02 0 0 Z " fill="#9ED1D6" transform="translate(63,97)"/>
<path d="M0 0 C2.97 0.495 2.97 0.495 6 1 C5.67 2.32 5.34 3.64 5 5 C3.68 4.67 2.36 4.34 1 4 C0.67 2.68 0.34 1.36 0 0 Z " fill="#4C2D43" transform="translate(133,144)"/>
<path d="M0 0 C0.99 0.66 1.98 1.32 3 2 C3 2.66 3 3.32 3 4 C2.34 4 1.68 4 1 4 C0.67 4.66 0.34 5.32 0 6 C0 5.34 0 4.68 0 4 C-0.99 4 -1.98 4 -3 4 C-3 3.34 -3 2.68 -3 2 C-2.01 1.34 -1.02 0.68 0 0 Z " fill="#E7F7F7" transform="translate(69,168)"/>
<path d="M0 0 C0.66 0 1.32 0 2 0 C1.75 1.875 1.75 1.875 1 4 C-1.0625 5.25 -1.0625 5.25 -3 6 C-1.125 1.125 -1.125 1.125 0 0 Z " fill="#FBDE69" transform="translate(49,39)"/>
</svg>
