<svg xml:space="preserve" style="enable-background:new 0 0 255.975 251.146;" viewBox="0 0 255.975 251.146" height="251.146px" width="255.975px" y="0px" x="0px" xmlns:xlink="http://www.w3.org/1999/xlink" xmlns="http://www.w3.org/2000/svg" id="Layer_1" version="1.1">
<g id="Layer_1_1_">
	<path d="M252.896,115.048c0-42.68-33.093-77.273-73.912-77.273c-0.636,0-1.262,0.03-1.894,0.049
		C164.203,15.18,140.573,0,113.541,0C72.72,0,39.628,34.6,39.628,77.28c0,0.554,0.029,1.1,0.04,1.652
		C17.342,92.227,2.277,117.317,2.277,146.104c0,42.678,33.094,77.27,73.914,77.27c2.321,0,4.615-0.123,6.884-0.342
		c13.558,4.969,35.068,28.115,58.028,28.115c37.732,0,67.832-29.563,72.33-67.734C236.896,170.465,252.896,144.715,252.896,115.048z" style="fill:transparent;"></path>
	<g style="display:none;" id="Layer_3_4_">
		<g style="display:inline;">
			<g>
				<path d="M83.635,140.439c0-11.564-10.059-20.938-22.467-20.938c-0.194,0-0.385,0.01-0.576,0.016
					c-3.917-6.136-11.102-10.245-19.318-10.245c-12.407,0-22.469,9.372-22.469,20.935c0,0.15,0.009,0.297,0.012,0.447
					c-6.783,3.602-11.363,10.397-11.363,18.197c0,11.562,10.059,20.934,22.468,20.934c0.705,0,1.403-0.033,2.092-0.094
					c4.122,4.648,10.358,7.617,17.335,7.617c11.471,0,20.925-8.012,22.293-18.352C78.772,155.451,83.635,148.477,83.635,140.439z" style="fill:#D7F7E4;"></path>
				<path d="M49.348,178.807c-6.893,0-13.391-2.749-17.95-7.568c-0.499,0.03-0.993,0.045-1.477,0.045
					c-13.216,0-23.968-10.063-23.968-22.434c0-7.767,4.328-14.997,11.356-19.075c0.247-12.172,10.902-22.004,23.964-22.004
					c8.091,0,15.716,3.899,20.111,10.23c13.116,0.11,23.75,10.133,23.75,22.438c0,8.109-4.626,15.514-12.126,19.502
					C71.161,170.751,61.137,178.807,49.348,178.807z M32.634,168.13l0.501,0.565c4.008,4.52,9.917,7.112,16.213,7.112
					c10.575,0,19.52-7.329,20.806-17.048l0.105-0.796l0.72-0.354c6.881-3.383,11.156-9.962,11.156-17.171
					c0-10.719-9.406-19.438-20.967-19.438c-0.121,0-0.24,0.005-0.358,0.009l-1.023,0.032l-0.458-0.718
					c-3.762-5.892-10.68-9.552-18.054-9.552c-11.562,0-20.969,8.718-20.969,19.435l0.029,1.34l-0.814,0.433
					c-6.518,3.46-10.567,9.926-10.567,16.872c0,10.716,9.406,19.434,20.968,19.434c0.637,0,1.296-0.029,1.96-0.088L32.634,168.13z" style="fill:#CCCCDE;"></path>
			</g>
			<path d="M60.789,118.75c-0.193,0-0.386,0.01-0.575,0.016
				c-3.141-4.918-8.383-8.534-14.573-9.775c4.898,1.229,9.023,4.208,11.56,8.175c0.164-0.004,2.416,3.886,2.583,3.886
				c10.646,0,15.601,5.738,15.601,15.659c0,6.896-2.583,11.291-8.704,14.302c-1.173,8.875-9.287,15.747-19.129,15.747
				c-5.99,0-11.34-2.543-14.877-6.529c-0.591,0.049-1.189,0.076-1.794,0.076c-10.649,0-19.013-5.049-19.013-14.969
				c0-6.682,2.988-9.973,8.432-13.938c-0.146-0.855-0.75-8.42,1.267-10.438c4.792-4.793,6.963-8.908,11.25-11.038
				c-8.414,3.025-14.385,10.627-14.385,19.535c0,0.148,0.009,0.299,0.012,0.447C11.655,133.51,7.076,140.3,7.076,148.1
				c0,11.562,10.059,20.938,22.468,20.938c0.707,0,1.401-0.035,2.093-0.098c4.121,4.646,10.356,7.617,17.336,7.617
				c11.469,0,20.924-8.014,22.291-18.354c7.133-3.506,11.997-10.479,11.997-18.52C83.258,128.123,73.199,118.75,60.789,118.75z" style="opacity:0.1;fill:#6E6E96;enable-background:new    ;"></path>
			<g>
				<path d="M28.811,151.761c0,0,11.635,2.276,11.635,13.661c0,0,3.134,19.344-8.976,33.027h27.96
					c-0.277-0.387-24.422-32.646,2.449-51.815C45.491,156.004,28.811,151.761,28.811,151.761z" style="fill:#EDE3DA;"></path>
				<path d="M59.43,199.95H28.139l2.207-2.494c11.505-13.001,8.648-31.606,8.619-31.793l-0.02-0.24
					c0-9.079-8.398-11.682-10.143-12.123c-0.238-0.053-0.362-0.084-0.362-0.084l0.658-2.926c0,0,0.139,0.026,0.391,0.089
					c0.935,0.203,4.231,0.841,8.801,0.841c5.724,0,14.333-1.021,22.844-5.887l1.616,2.522c-6.63,4.73-10.568,10.709-11.702,17.769
					c-2.415,15.029,8.337,30.228,9.571,31.911l1.75,2.387L59.43,199.95z M34.605,196.95H56.6
					c-3.447-5.394-10.64-18.567-8.514-31.802c0.803-5.001,2.847-9.501,6.101-13.455c-6.069,2.011-11.71,2.526-15.896,2.526
					c-0.463,0-0.914-0.006-1.352-0.018c2.654,2.276,4.973,5.785,5.006,11.103C42.206,167.041,44.377,183.638,34.605,196.95z" style="fill:#CCCCDE;"></path>
			</g>
			<g>
				<path d="M36.178,128.922" style="fill:#D57E58;"></path>
			</g>
			<path d="M54.905,151.73c0,0-17.652,22.793-4.085,46.721h8.611
				C59.43,198.451,41.515,173.414,54.905,151.73z" style="opacity:0.11;fill:#6E6E96;enable-background:new    ;"></path>
		</g>
		<g style="display:inline;">
			<g>
				<path d="M253.475,139.156c0-10.828-9.42-19.604-21.04-19.604c-0.183,0-0.358,0.009-0.539,0.014
					c-3.669-5.744-10.396-9.596-18.091-9.596c-11.62,0-21.041,8.776-21.041,19.604c0,0.141,0.009,0.279,0.012,0.418
					c-6.354,3.375-10.644,9.74-10.644,17.043c0,10.826,9.421,19.605,21.04,19.605c0.66,0,1.312-0.033,1.96-0.092
					c3.858,4.354,9.698,7.137,16.233,7.137c10.736,0,19.596-7.5,20.875-17.188C248.92,153.213,253.475,146.684,253.475,139.156z" style="fill:#D7F7E4;"></path>
				<path d="M221.365,175.185c-6.466,0-12.562-2.573-16.847-7.086c-0.457,0.027-0.902,0.041-1.347,0.041
					c-12.429,0-22.54-9.468-22.54-21.105c0-7.289,4.053-14.077,10.637-17.92c0.262-11.426,10.271-20.646,22.536-20.646
					c7.589,0,14.744,3.651,18.884,9.583c12.312,0.128,22.286,9.545,22.286,21.103c0,7.613-4.335,14.567-11.367,18.326
					C241.852,167.63,232.437,175.185,221.365,175.185z M205.752,164.986l0.503,0.567c3.734,4.215,9.241,6.632,15.11,6.632
					c9.857,0,18.192-6.828,19.388-15.884l0.105-0.796l0.72-0.354c6.413-3.154,10.396-9.283,10.396-15.996
					c0-9.982-8.766-18.104-19.54-18.104c-0.108,0-0.214,0.004-0.32,0.007l-1.026,0.029l-0.456-0.715
					c-3.508-5.492-9.956-8.903-16.827-8.903c-10.775,0-19.541,8.122-19.541,18.104l0.031,1.31l-0.815,0.433
					c-6.074,3.227-9.848,9.25-9.848,15.719c0,9.983,8.766,18.105,19.54,18.105c0.591,0,1.188-0.028,1.825-0.086L205.752,164.986z" style="fill:#CCCCDE;"></path>
			</g>
			<path d="M232.081,118.845c-0.186,0-0.358,0.009-0.539,0.013
				c-2.94-4.606-7.854-7.992-13.646-9.154c4.586,1.15,8.449,3.94,10.822,7.655c0.154-0.004,2.263,3.639,2.419,3.639
				c9.971,0,14.608,5.374,14.608,14.664c0,6.459-2.42,10.574-8.148,13.396c-1.1,8.311-8.698,14.74-17.914,14.74
				c-5.605,0-10.619-2.381-13.934-6.115c-0.559,0.047-1.112,0.07-1.684,0.07c-9.975,0-17.806-4.727-17.806-14.016
				c0-6.258,2.8-9.34,7.896-13.055c-0.14-0.809-0.701-7.888,1.188-9.772c4.485-4.488,6.521-8.343,10.534-10.337
				c-7.879,2.833-13.471,9.952-13.471,18.291c0,0.139,0.006,0.275,0.012,0.418c-6.354,3.373-10.646,9.736-10.646,17.041
				c0,10.824,9.421,19.604,21.041,19.604c0.661,0,1.313-0.032,1.959-0.091c3.859,4.355,9.699,7.137,16.234,7.137
				c10.739,0,19.594-7.5,20.875-17.188c6.68-3.285,11.229-9.812,11.229-17.342C253.122,127.623,243.702,118.845,232.081,118.845z" style="opacity:0.1;fill:#6E6E96;enable-background:new    ;"></path>
			<g>
				<path d="M202.135,149.758c0,0,10.896,2.135,10.896,12.799c0,0,2.935,18.107-8.405,30.928h26.184
					c-0.26-0.359-22.87-30.566,2.294-48.521C217.754,153.732,202.135,149.758,202.135,149.758z" style="fill:#EDE3DA;"></path>
				<path d="M230.81,194.984h-29.513l2.205-2.494c10.745-12.147,8.077-29.52,8.049-29.693l-0.02-0.24
					c0-8.433-7.803-10.854-9.428-11.267c-0.223-0.049-0.339-0.079-0.339-0.079l0.658-2.925c0,0,0.131,0.024,0.368,0.084
					c0.875,0.19,3.956,0.786,8.229,0.786c5.347,0,13.39-0.953,21.34-5.496l1.615,2.523c-6.193,4.419-9.868,10.003-10.923,16.596
					c-2.249,14.062,7.798,28.227,8.951,29.796l1.755,2.388L230.81,194.984z M207.749,191.984h20.233
					c-3.271-5.143-9.863-17.358-7.893-29.679c0.736-4.604,2.59-8.757,5.534-12.418c-5.576,1.803-10.748,2.269-14.604,2.269
					c-0.345,0-0.683-0.004-1.012-0.01c2.418,2.148,4.49,5.411,4.523,10.292C214.78,164.101,216.782,179.528,207.749,191.984z" style="fill:#CCCCDE;"></path>
			</g>
			<g>
				<path d="M209.036,128.373" style="fill:#D57E58;"></path>
			</g>
			<path d="M226.571,149.73c0,0-16.529,21.344-3.822,43.752h8.062
				C230.808,193.482,214.032,170.035,226.571,149.73z" style="opacity:0.11;fill:#6E6E96;enable-background:new    ;"></path>
		</g>
		<g style="display:inline;">
			<g>
				<path d="M216.773,140.916c0-16.621-14.461-30.094-32.299-30.094c-0.278,0-0.554,0.012-0.828,0.019
					c-5.632-8.815-15.959-14.729-27.771-14.729c-17.838,0-32.301,13.475-32.301,30.096c0,0.215,0.014,0.429,0.018,0.646
					c-9.755,5.181-16.339,14.943-16.339,26.155c0,16.62,14.462,30.099,32.3,30.099c1.014,0,2.018-0.049,3.008-0.14
					c5.926,6.688,14.891,10.95,24.921,10.95c16.489,0,30.081-11.514,32.049-26.379C209.782,162.498,216.773,152.469,216.773,140.916
					z" style="fill:#D7F7E4;"></path>
				<path d="M167.482,195.419c-9.839,0-19.102-3.962-25.536-10.896c-0.805,0.057-1.606,0.085-2.393,0.085
					c-18.637,0-33.8-14.175-33.8-31.599c0-11.044,6.23-21.321,16.322-27.034c0.134-17.315,15.245-31.363,33.8-31.363
					c11.535,0,22.397,5.615,28.566,14.71c0.011,0,0.021,0,0.032,0c18.637,0,33.799,14.173,33.799,31.594
					c0,11.517-6.635,22.026-17.37,27.611C198.444,183.913,184.226,195.419,167.482,195.419z M143.18,181.405l0.504,0.568
					c5.881,6.639,14.555,10.445,23.798,10.445c15.53,0,28.67-10.78,30.562-25.076l0.105-0.795l0.72-0.354
					c10.118-4.977,16.404-14.663,16.404-25.278c0-15.767-13.816-28.594-30.799-28.594c-0.183,0-0.363,0.006-0.544,0.011
					l-1.093,0.028l-0.455-0.713c-5.531-8.658-15.688-14.036-26.507-14.036c-16.983,0-30.801,12.828-30.801,28.596
					c0,0.106,0.004,0.212,0.008,0.318l0.025,1.222l-0.812,0.432c-9.587,5.091-15.542,14.605-15.542,24.83
					c0,15.77,13.817,28.599,30.8,28.599c0.939,0,1.906-0.045,2.871-0.134L143.18,181.405z" style="fill:#CCCCDE;"></path>
			</g>
			<path d="M183.931,109.738c-0.276,0-0.552,0.012-0.827,0.019
				c-4.516-7.069-12.051-12.269-20.949-14.052c7.041,1.768,12.973,6.049,16.614,11.751c0.237-0.006,3.476,5.586,3.713,5.586
				c15.31,0,22.431,8.248,22.431,22.512c0,9.913-3.717,16.231-12.515,20.563c-1.687,12.754-13.353,22.635-27.5,22.635
				c-8.608,0-16.302-3.655-21.387-9.395c-0.851,0.069-1.71,0.112-2.58,0.112c-15.31,0-27.332-7.255-27.332-21.517
				c0-9.604,4.298-14.336,12.12-20.039c-0.209-1.232-1.077-12.104,1.82-15.002c6.89-6.89,10.011-12.808,16.174-15.868
				c-12.096,4.351-20.679,15.277-20.679,28.08c0,0.215,0.011,0.429,0.017,0.646c-9.756,5.177-16.34,14.945-16.34,26.155
				c0,16.62,14.461,30.099,32.3,30.099c1.017,0,2.017-0.049,3.008-0.138c5.925,6.688,14.892,10.948,24.922,10.948
				c16.487,0,30.078-11.514,32.046-26.379c10.256-5.043,17.244-15.069,17.244-26.623
				C216.231,123.211,201.77,109.738,183.931,109.738z" style="opacity:0.1;fill:#6E6E96;enable-background:new    ;"></path>
			<g>
				<path d="M137.959,157.193c0,0,16.727,3.271,16.727,19.643c0,0,4.504,27.809-12.902,47.48h40.193
					c-0.396-0.559-35.105-46.922,3.521-74.484C161.939,163.293,137.959,157.193,137.959,157.193z" style="fill:#EDE3DA;"></path>
				<path d="M181.977,225.816h-43.523l2.207-2.494c16.714-18.89,12.588-45.976,12.545-46.247l-0.02-0.239
					c0-13.556-12.513-17.42-15.085-18.07c-0.336-0.073-0.512-0.118-0.512-0.118l0.658-2.926c0,0,0.193,0.037,0.54,0.123
					c1.35,0.295,6.156,1.228,12.81,1.228c8.306,0,20.8-1.482,33.157-8.543l1.615,2.523c-9.671,6.901-15.419,15.632-17.084,25.948
					c-3.521,21.817,12.076,43.931,13.866,46.381l1.743,2.385L181.977,225.816z M144.973,222.816h34.147
					c-4.569-6.936-15.97-26.627-12.797-46.293c1.268-7.855,4.705-14.843,10.252-20.869c-9.523,3.547-18.481,4.418-24.979,4.418
					c-1.403,0-2.726-0.039-3.955-0.104c4.313,3.099,8.505,8.286,8.544,16.749C156.523,178.925,159.875,203.59,144.973,222.816z" style="fill:#CCCCDE;"></path>
			</g>
			<g>
				<path d="M148.552,124.362" style="fill:#D57E58;"></path>
			</g>
			<path d="M175.472,157.148c0,0-25.378,32.766-5.873,67.164h12.378
				C181.977,224.313,156.223,188.32,175.472,157.148z" style="opacity:0.11;fill:#6E6E96;enable-background:new    ;"></path>
		</g>
		<g style="display:inline;">
			<g>
				<path d="M144.936,142.027c0-13.646-11.873-24.707-26.517-24.707c-0.229,0-0.454,0.01-0.682,0.016
					c-4.622-7.237-13.102-12.092-22.8-12.092c-14.644,0-26.518,11.063-26.518,24.706c0,0.178,0.012,0.354,0.015,0.529
					c-8.01,4.252-13.414,12.271-13.414,21.477c0,13.646,11.872,24.707,26.52,24.707c0.832,0,1.653-0.041,2.469-0.104
					c4.864,5.482,12.224,8.982,20.46,8.982c13.537,0,24.695-9.451,26.309-21.65C139.196,159.746,144.936,151.514,144.936,142.027z" style="fill:#D7F7E4;"></path>
				<path d="M104.469,187.042c-8.108,0-15.748-3.248-21.08-8.937c-0.658,0.039-1.268,0.058-1.849,0.058
					c-15.45,0-28.02-11.757-28.02-26.207c0-9.118,5.111-17.604,13.402-22.355c0.2-14.29,12.69-25.856,28.015-25.856
					c9.51,0,18.469,4.606,23.595,12.076c15.397,0.058,27.903,11.792,27.903,26.207c0,9.51-5.454,18.196-14.288,22.85
					C130.05,177.568,118.3,187.042,104.469,187.042z M84.637,175.007l0.494,0.558c4.78,5.388,11.829,8.478,19.338,8.478
					c12.617,0,23.288-8.747,24.821-20.347l0.105-0.795l0.719-0.354c8.217-4.046,13.321-11.908,13.321-20.519
					c0-12.797-11.223-23.207-25.017-23.207c-0.148,0-0.294,0.005-0.44,0.009l-1.05,0.028l-0.456-0.714
					c-4.491-7.031-12.743-11.399-21.536-11.399c-13.795,0-25.018,10.41-25.018,23.206l0.03,1.423l-0.812,0.432
					c-7.783,4.131-12.617,11.853-12.617,20.151c0,12.797,11.224,23.207,25.02,23.207c0.714,0,1.484-0.032,2.354-0.1L84.637,175.007z" style="fill:#CCCCDE;"></path>
			</g>
			<path d="M117.973,116.432c-0.228,0-0.452,0.009-0.679,0.015
				c-3.707-5.805-9.896-10.072-17.199-11.537c5.78,1.45,10.648,4.966,13.641,9.647c0.194-0.006,2.853,4.586,3.05,4.586
				c12.565,0,18.414,6.771,18.414,18.479c0,8.14-3.052,13.326-10.271,16.881c-1.384,10.475-10.961,18.584-22.576,18.584
				c-7.067,0-13.384-3.004-17.559-7.715c-0.698,0.062-1.404,0.097-2.118,0.097c-12.568,0-22.438-5.957-22.438-17.664
				c0-7.886,3.528-11.771,9.949-16.45c-0.171-1.018-0.884-9.938,1.496-12.316c5.655-5.657,8.218-10.515,13.277-13.027
				c-9.932,3.57-16.979,12.542-16.979,23.055c0,0.176,0.012,0.352,0.017,0.525c-8.013,4.25-13.415,12.271-13.415,21.479
				c0,13.645,11.873,24.707,26.518,24.707c0.834,0,1.655-0.041,2.469-0.109c4.864,5.488,12.226,8.988,20.461,8.988
				c13.536,0,24.693-9.451,26.312-21.656c8.418-4.141,14.158-12.371,14.158-21.854C144.491,127.494,132.618,116.432,117.973,116.432
				z" style="opacity:0.1;fill:#6E6E96;enable-background:new    ;"></path>
			<g>
				<path d="M80.232,155.391c0,0,13.731,2.688,13.731,16.129c0,0,3.697,22.821-10.595,38.977h33
					c-0.328-0.455-28.824-38.52,2.89-61.151C99.918,160.398,80.232,155.391,80.232,155.391z" style="fill:#EDE3DA;"></path>
				<path d="M116.368,211.997h-36.33l2.206-2.494c13.636-15.413,10.273-37.522,10.237-37.743l-0.019-0.239
					c0-10.927-10.094-14.05-12.18-14.577c-0.277-0.062-0.421-0.098-0.421-0.098l0.658-2.926c0,0,0.16,0.03,0.45,0.103
					c1.104,0.241,5.024,1,10.455,1c6.787,0,16.996-1.211,27.089-6.979l1.615,2.523c-7.892,5.632-12.576,12.754-13.924,21.168
					c-2.861,17.866,9.888,35.854,11.351,37.846l1.753,2.388L116.368,211.997z M86.53,208.997h26.991
					c-3.932-6.046-12.823-21.844-10.278-37.737c0.989-6.177,3.596-11.705,7.778-16.519c-7.479,2.623-14.467,3.281-19.597,3.281
					c-0.832,0-1.629-0.016-2.389-0.045c3.334,2.627,6.391,6.832,6.427,13.425C95.756,173.339,98.41,193.244,86.53,208.997z" style="fill:#CCCCDE;"></path>
			</g>
			<g>
				<path d="M88.928,128.438" style="fill:#D57E58;"></path>
			</g>
			<path d="M111.028,155.355c0,0-20.835,26.896-4.819,55.141h10.162
				C116.369,210.496,95.225,180.945,111.028,155.355z" style="opacity:0.11;fill:#6E6E96;enable-background:new    ;"></path>
		</g>
		<g style="display:inline;">
			<g>
				<path d="M252.159,166.164c0-12.344-10.74-22.35-23.988-22.35c-0.202,0-0.406,0.008-0.61,0.014
					c-4.187-6.549-11.854-10.938-20.625-10.938c-13.248,0-23.983,10.008-23.983,22.35c0,0.162,0.012,0.318,0.014,0.479
					c-7.244,3.851-12.135,11.104-12.135,19.433c0,12.348,10.734,22.354,23.983,22.354c0.753,0,1.497-0.039,2.229-0.104
					c4.398,4.969,11.062,8.135,18.512,8.135c12.245,0,22.339-8.553,23.799-19.592C246.965,182.191,252.159,174.746,252.159,166.164z" style="fill:#D7F7E4;"></path>
				<path d="M215.556,207.036c-7.356,0-14.282-2.938-19.127-8.084c-0.558,0.035-1.091,0.053-1.614,0.053
					c-14.052,0-25.483-10.7-25.483-23.854c0-8.271,4.622-15.974,12.125-20.311c0.228-12.967,11.57-23.45,25.479-23.45
					c8.62,0,16.746,4.166,21.42,10.925c13.97,0.093,25.304,10.756,25.304,23.849c0,8.631-4.937,16.519-12.936,20.765
					C238.783,198.447,228.112,207.036,215.556,207.036z M197.666,195.841l0.501,0.566c4.292,4.849,10.63,7.629,17.389,7.629
					c11.341,0,20.933-7.862,22.312-18.288l0.105-0.795l0.719-0.354c7.382-3.64,11.968-10.704,11.968-18.435
					c0-11.496-10.088-20.85-22.488-20.85c-0.146,0-0.294,0.005-0.441,0.009l-0.976,0.028l-0.457-0.716
					c-4.04-6.319-11.459-10.245-19.361-10.245c-12.397,0-22.483,9.354-22.483,20.85l0.024,1.374l-0.807,0.429
					c-6.994,3.718-11.339,10.656-11.339,18.108c0,11.499,10.086,20.854,22.483,20.854c0.664,0,1.351-0.032,2.098-0.098
					L197.666,195.841z" style="fill:#CCCCDE;"></path>
			</g>
			<path d="M227.767,143.008c-0.206,0-0.409,0.014-0.614,0.018
				c-3.354-5.25-8.947-9.111-15.558-10.438c5.229,1.313,9.633,4.492,12.339,8.729c0.175-0.004,2.579,4.146,2.757,4.146
				c11.368,0,16.655,6.123,16.655,16.721c0,7.359-2.757,12.055-9.291,15.27c-1.252,9.473-9.915,16.814-20.423,16.814
				c-6.396,0-12.106-2.723-15.884-6.98c-0.631,0.055-1.271,0.086-1.916,0.086c-11.368,0-20.299-5.389-20.299-15.979
				c0-7.137,3.188-10.646,9.002-14.887c-0.156-0.918-0.806-8.984,1.353-11.141c5.116-5.117,7.437-9.514,12.011-11.785
				c-8.979,3.229-15.355,11.347-15.355,20.854c0,0.157,0.013,0.314,0.017,0.479c-7.246,3.847-12.138,11.104-12.138,19.429
				c0,12.345,10.738,22.353,23.988,22.353c0.754,0,1.494-0.035,2.229-0.103c4.401,4.968,11.062,8.134,18.509,8.134
				c12.245,0,22.338-8.555,23.801-19.594c7.613-3.74,12.812-11.189,12.812-19.77C251.754,153.016,241.016,143.008,227.767,143.008z" style="opacity:0.1;fill:#6E6E96;enable-background:new    ;"></path>
			<g>
				<path d="M193.625,178.252c0,0,12.422,2.434,12.422,14.588c0,0,3.345,20.646-9.584,35.262h29.853
					c-0.296-0.41-26.071-34.85,2.615-55.318C211.435,182.783,193.625,178.252,193.625,178.252z" style="fill:#EDE3DA;"></path>
				<path d="M226.316,229.601h-33.182l2.206-2.494c12.315-13.922,9.259-33.828,9.227-34.027l-0.02-0.24
					c0-9.771-9.036-12.571-10.909-13.045c-0.252-0.056-0.383-0.09-0.383-0.09l0.658-2.925c0,0,0.147,0.027,0.412,0.094
					c0.999,0.218,4.531,0.902,9.428,0.902c6.122,0,15.33-1.093,24.434-6.296l1.615,2.523c-7.105,5.07-11.323,11.48-12.536,19.053
					c-2.58,16.108,8.92,32.334,10.24,34.132l1.754,2.388L226.316,229.601z M199.609,226.601h23.868
					c-3.633-5.64-11.454-19.78-9.173-34.02c0.871-5.444,3.124-10.332,6.724-14.61c-6.594,2.236-12.736,2.805-17.274,2.805
					c-0.6,0-1.18-0.01-1.739-0.027c2.908,2.411,5.498,6.182,5.533,11.973C207.82,194.534,210.169,212.371,199.609,226.601z" style="fill:#CCCCDE;"></path>
			</g>
			<g>
				<path d="M201.493,153.871" style="fill:#D57E58;"></path>
			</g>
			<path d="M221.485,178.219c0,0-18.847,24.334-4.359,49.882h9.19
				C226.316,228.1,207.189,201.369,221.485,178.219z" style="opacity:0.11;fill:#6E6E96;enable-background:new    ;"></path>
		</g>
		<g style="display:inline;">
			<g>
				<path d="M87.893,164.313c0-13.111-11.408-23.738-25.479-23.738c-0.222,0-0.438,0.008-0.653,0.014
					c-4.443-6.954-12.589-11.611-21.907-11.611c-14.069,0-25.479,10.629-25.479,23.734c0,0.17,0.011,0.336,0.015,0.507
					C6.694,157.302,1.5,165.011,1.5,173.857c0,13.105,11.407,23.735,25.479,23.735c0.8,0,1.59-0.041,2.372-0.104
					c4.674,5.271,11.745,8.639,19.659,8.639c13.007,0,23.729-9.082,25.279-20.809C82.378,181.336,87.893,173.427,87.893,164.313z" style="fill:#D7F7E4;"></path>
				<path d="M49.01,207.628c-7.795,0-15.142-3.122-20.278-8.592c-0.622,0.038-1.201,0.057-1.753,0.057
					C12.103,199.093,0,187.772,0,173.857c0-8.774,4.911-16.939,12.878-21.517c0.213-13.744,12.232-24.863,26.976-24.863
					c9.147,0,17.765,4.424,22.703,11.598c14.811,0.072,26.836,11.366,26.836,25.238c0,9.149-5.242,17.507-13.734,21.991
					C73.628,198.516,62.319,207.628,49.01,207.628z M29.977,195.934l0.496,0.56c4.584,5.169,11.341,8.134,18.537,8.134
					c12.094,0,22.323-8.386,23.792-19.505l0.105-0.795l0.719-0.354c7.875-3.878,12.766-11.411,12.766-19.66
					c0-12.263-10.757-22.238-23.979-22.238c-0.164,0-0.323,0.005-0.483,0.01l-0.978,0.026l-0.457-0.715
					c-4.303-6.735-12.213-10.919-20.643-10.919c-13.222,0-23.979,9.975-23.979,22.234l0.036,1.397l-0.818,0.435
					C7.634,158.502,3,165.902,3,173.857c0,12.261,10.757,22.235,23.979,22.235c0.684,0,1.421-0.032,2.252-0.099L29.977,195.934z" style="fill:#CCCCDE;"></path>
			</g>
			<path d="M61.986,139.719c-0.219,0-0.435,0.011-0.65,0.017
				c-3.563-5.578-9.506-9.678-16.525-11.086c5.553,1.393,10.231,4.771,13.106,9.27c0.186-0.004,2.737,4.406,2.928,4.406
				c12.076,0,17.692,6.506,17.692,17.758c0,7.82-2.931,12.807-9.87,16.223c-1.33,10.062-10.531,17.854-21.693,17.854
				c-6.792,0-12.859-2.885-16.871-7.412c-0.67,0.059-1.348,0.092-2.035,0.092c-12.074,0-21.561-5.723-21.561-16.975
				c0-7.574,3.391-11.307,9.561-15.807c-0.165-0.977-0.85-9.551,1.438-11.837c5.435-5.435,7.896-10.103,12.758-12.517
				c-9.541,3.431-16.312,12.051-16.312,22.146c0,0.17,0.011,0.338,0.015,0.508c-7.696,4.084-12.89,11.793-12.89,20.639
				c0,13.107,11.406,23.736,25.479,23.736c0.801,0,1.591-0.039,2.373-0.105c4.674,5.273,11.745,8.641,19.659,8.641
				c13.006,0,23.728-9.08,25.276-20.811c8.091-3.979,13.604-11.891,13.604-21.002C87.466,150.345,76.058,139.719,61.986,139.719z" style="opacity:0.1;fill:#6E6E96;enable-background:new    ;"></path>
			<g>
				<path d="M25.723,177.152c0,0,13.193,2.584,13.193,15.496c0,0,3.553,21.932-10.181,37.451h31.707
					c-0.312-0.438-27.692-37.018,2.777-58.762C44.638,181.963,25.723,177.152,25.723,177.152z" style="fill:#EDE3DA;"></path>
				<path d="M60.443,231.599H25.405l2.207-2.494c13.111-14.815,9.858-36.005,9.824-36.217l-0.02-0.24
					c0-10.454-9.662-13.443-11.659-13.948c-0.266-0.059-0.404-0.094-0.404-0.094l0.658-2.926c0,0,0.154,0.029,0.433,0.099
					c1.061,0.231,4.818,0.959,10.028,0.959c6.515,0,16.315-1.162,26.004-6.702l1.616,2.522c-7.56,5.396-12.051,12.216-13.349,20.271
					c-2.754,17.102,9.48,34.429,10.885,36.348l1.745,2.386L60.443,231.599z M31.891,228.599h25.712
					c-3.807-5.892-12.27-21.057-9.823-36.246c0.944-5.862,3.402-11.115,7.335-15.7c-7.115,2.464-13.757,3.085-18.644,3.085
					c-0.733,0-1.438-0.013-2.113-0.037c3.159,2.539,6.022,6.566,6.058,12.829C40.701,194.417,43.23,213.474,31.891,228.599z" style="fill:#CCCCDE;"></path>
			</g>
			<g>
				<path d="M34.078,151.254" style="fill:#D57E58;"></path>
			</g>
			<path d="M55.313,177.117c0,0-20.02,25.848-4.633,52.982h9.764
				C60.444,230.1,40.129,201.707,55.313,177.117z" style="opacity:0.11;fill:#6E6E96;enable-background:new    ;"></path>
		</g>
	</g>
	<g style="display:none;" id="Layer_3_3_">
		<g style="display:inline;">
			<g>
				<path d="M84.635,140.439c0-11.564-10.059-20.938-22.467-20.938c-0.194,0-0.385,0.01-0.576,0.016
					c-3.917-6.136-11.102-10.245-19.318-10.245c-12.407,0-22.469,9.372-22.469,20.935c0,0.15,0.009,0.297,0.012,0.447
					c-6.783,3.602-11.363,10.397-11.363,18.197c0,11.562,10.059,20.934,22.468,20.934c0.705,0,1.403-0.033,2.092-0.094
					c4.122,4.648,10.358,7.617,17.335,7.617c11.471,0,20.925-8.012,22.293-18.352C79.772,155.451,84.635,148.477,84.635,140.439z" style="fill:#D7F7E4;"></path>
				<path d="M50.348,178.807c-6.893,0-13.391-2.749-17.95-7.568c-0.499,0.03-0.993,0.045-1.477,0.045
					c-13.216,0-23.968-10.063-23.968-22.434c0-7.767,4.328-14.997,11.356-19.075c0.247-12.172,10.902-22.004,23.964-22.004
					c8.091,0,15.716,3.899,20.111,10.23c13.116,0.11,23.75,10.133,23.75,22.438c0,8.109-4.626,15.514-12.126,19.502
					C72.161,170.751,62.137,178.807,50.348,178.807z M33.634,168.13l0.501,0.565c4.008,4.52,9.917,7.112,16.213,7.112
					c10.575,0,19.52-7.329,20.806-17.048l0.105-0.796l0.72-0.354c6.881-3.383,11.156-9.962,11.156-17.171
					c0-10.719-9.406-19.438-20.967-19.438c-0.121,0-0.24,0.005-0.358,0.009l-1.023,0.032l-0.458-0.718
					c-3.762-5.892-10.68-9.552-18.054-9.552c-11.562,0-20.969,8.718-20.969,19.435l0.029,1.34l-0.814,0.433
					c-6.518,3.46-10.567,9.926-10.567,16.872c0,10.716,9.406,19.434,20.968,19.434c0.637,0,1.296-0.029,1.96-0.088L33.634,168.13z" style="fill:#CCCCDE;"></path>
			</g>
			<path d="M61.789,118.75c-0.193,0-0.386,0.01-0.575,0.016
				c-3.141-4.918-8.383-8.534-14.573-9.775c4.898,1.229,9.023,4.208,11.56,8.175c0.164-0.004,2.416,3.886,2.583,3.886
				c10.646,0,15.601,5.738,15.601,15.659c0,6.896-2.583,11.291-8.704,14.302c-1.173,8.875-9.287,15.747-19.129,15.747
				c-5.99,0-11.34-2.543-14.877-6.531c-0.591,0.051-1.189,0.078-1.794,0.078c-10.649,0-19.013-5.049-19.013-14.969
				c0-6.682,2.988-9.973,8.432-13.938c-0.146-0.857-0.75-8.421,1.267-10.438c4.792-4.793,6.963-8.908,11.25-11.038
				c-8.414,3.025-14.385,10.627-14.385,19.534c0,0.148,0.009,0.299,0.012,0.447c-6.787,3.604-11.364,10.396-11.364,18.197
				c0,11.562,10.059,20.936,22.468,20.936c0.707,0,1.402-0.035,2.093-0.096c4.121,4.646,10.356,7.617,17.336,7.617
				c11.469,0,20.924-8.014,22.291-18.354c7.133-3.506,11.997-10.479,11.997-18.52C84.258,128.123,74.199,118.75,61.789,118.75z" style="opacity:0.1;fill:#6E6E96;enable-background:new    ;"></path>
			<g>
				<path d="M29.811,151.761c0,0,11.635,2.276,11.635,13.661c0,0,3.134,19.344-8.976,33.027h27.96
					c-0.277-0.387-24.422-32.643,2.449-51.815C46.491,156.004,29.811,151.761,29.811,151.761z" style="fill:#EDE3DA;"></path>
				<path d="M60.43,199.95H29.139l2.207-2.494c11.505-13.001,8.648-31.606,8.619-31.793l-0.02-0.24
					c0-9.079-8.398-11.682-10.143-12.123c-0.238-0.053-0.362-0.084-0.362-0.084l0.658-2.926c0,0,0.139,0.026,0.391,0.089
					c0.935,0.203,4.231,0.841,8.801,0.841c5.724,0,14.333-1.021,22.844-5.887l1.616,2.522c-6.631,4.731-10.568,10.711-11.702,17.771
					c-2.414,15.028,8.337,30.226,9.571,31.908l1.75,2.387L60.43,199.95z M35.605,196.95H57.6
					c-3.447-5.393-10.64-18.565-8.514-31.799c0.804-5.002,2.848-9.504,6.102-13.458c-6.07,2.011-11.711,2.526-15.897,2.526
					c-0.463,0-0.914-0.006-1.352-0.018c2.654,2.276,4.973,5.785,5.006,11.103C43.206,167.041,45.377,183.638,35.605,196.95z" style="fill:#CCCCDE;"></path>
			</g>
			<g>
				<path d="M37.178,128.922" style="fill:#D57E58;"></path>
			</g>
			<path d="M55.905,151.73c0,0-17.652,22.793-4.085,46.721h8.611
				C60.43,198.451,42.515,173.414,55.905,151.73z" style="opacity:0.11;fill:#6E6E96;enable-background:new    ;"></path>
		</g>
		<g style="display:inline;">
			<g>
				<path d="M254.475,139.156c0-10.828-9.42-19.604-21.04-19.604c-0.183,0-0.358,0.009-0.539,0.014
					c-3.669-5.744-10.396-9.596-18.091-9.596c-11.62,0-21.041,8.776-21.041,19.604c0,0.141,0.009,0.279,0.012,0.418
					c-6.354,3.375-10.644,9.74-10.644,17.043c0,10.826,9.421,19.605,21.04,19.605c0.66,0,1.312-0.033,1.96-0.092
					c3.858,4.355,9.698,7.137,16.233,7.137c10.737,0,19.596-7.5,20.875-17.188C249.92,153.213,254.475,146.684,254.475,139.156z" style="fill:#D7F7E4;"></path>
				<path d="M222.365,175.185c-6.467,0-12.562-2.573-16.847-7.086c-0.457,0.027-0.902,0.041-1.347,0.041
					c-12.429,0-22.54-9.468-22.54-21.105c0-7.289,4.053-14.077,10.637-17.92c0.262-11.426,10.271-20.646,22.536-20.646
					c7.589,0,14.744,3.651,18.884,9.583c12.312,0.128,22.286,9.545,22.286,21.103c0,7.613-4.335,14.567-11.367,18.326
					C242.852,167.63,233.437,175.185,222.365,175.185z M206.752,164.986l0.503,0.567c3.733,4.215,9.24,6.632,15.11,6.632
					c9.857,0,18.192-6.828,19.388-15.884l0.105-0.796l0.72-0.354c6.413-3.154,10.396-9.283,10.396-15.996
					c0-9.982-8.766-18.104-19.54-18.104c-0.108,0-0.214,0.004-0.32,0.007l-1.026,0.029l-0.456-0.715
					c-3.508-5.492-9.956-8.903-16.827-8.903c-10.775,0-19.541,8.122-19.541,18.104l0.031,1.31l-0.815,0.433
					c-6.074,3.227-9.848,9.25-9.848,15.719c0,9.983,8.766,18.105,19.54,18.105c0.591,0,1.188-0.028,1.825-0.086L206.752,164.986z" style="fill:#CCCCDE;"></path>
			</g>
			<path d="M233.081,118.845c-0.185,0-0.358,0.009-0.539,0.013
				c-2.94-4.606-7.854-7.992-13.646-9.154c4.586,1.15,8.449,3.94,10.822,7.655c0.154-0.004,2.263,3.639,2.419,3.639
				c9.971,0,14.608,5.374,14.608,14.664c0,6.459-2.42,10.574-8.148,13.396c-1.1,8.311-8.698,14.74-17.914,14.74
				c-5.605,0-10.619-2.381-13.934-6.115c-0.558,0.047-1.112,0.07-1.683,0.07c-9.975,0-17.806-4.727-17.806-14.016
				c0-6.256,2.8-9.338,7.896-13.055c-0.14-0.807-0.701-7.887,1.188-9.771c4.486-4.488,6.521-8.343,10.535-10.337
				c-7.879,2.833-13.471,9.952-13.471,18.292c0,0.139,0.006,0.275,0.012,0.418c-6.355,3.373-10.646,9.736-10.646,17.041
				c0,10.824,9.42,19.604,21.041,19.604c0.661,0,1.313-0.03,1.959-0.088c3.859,4.354,9.699,7.134,16.234,7.134
				c10.74,0,19.594-7.5,20.875-17.188c6.68-3.285,11.232-9.812,11.232-17.342C254.122,127.623,244.702,118.845,233.081,118.845z" style="opacity:0.1;fill:#6E6E96;enable-background:new    ;"></path>
			<g>
				<path d="M203.135,149.758c0,0,10.896,2.135,10.896,12.799c0,0,2.935,18.107-8.405,30.928h26.184
					c-0.26-0.359-22.87-30.566,2.294-48.521C218.754,153.732,203.135,149.758,203.135,149.758z" style="fill:#EDE3DA;"></path>
				<path d="M231.81,194.984h-29.513l2.205-2.494c10.745-12.147,8.077-29.52,8.049-29.693l-0.02-0.24
					c0-8.433-7.803-10.854-9.428-11.267c-0.223-0.049-0.339-0.079-0.339-0.079l0.658-2.925c0,0,0.131,0.024,0.368,0.084
					c0.875,0.19,3.956,0.786,8.229,0.786c5.347,0,13.39-0.953,21.34-5.496l1.615,2.523c-6.193,4.419-9.868,10.003-10.923,16.596
					c-2.249,14.062,7.798,28.227,8.951,29.796l1.755,2.388L231.81,194.984z M208.749,191.984h20.233
					c-3.271-5.143-9.863-17.358-7.893-29.679c0.736-4.604,2.59-8.757,5.534-12.418c-5.576,1.803-10.748,2.269-14.604,2.269
					c-0.345,0-0.683-0.004-1.012-0.01c2.418,2.148,4.49,5.411,4.523,10.292C215.78,164.101,217.782,179.528,208.749,191.984z" style="fill:#CCCCDE;"></path>
			</g>
			<g>
				<path d="M210.036,128.373" style="fill:#D57E58;"></path>
			</g>
			<path d="M227.571,149.73c0,0-16.529,21.344-3.822,43.752h8.062
				C231.808,193.482,215.032,170.035,227.571,149.73z" style="opacity:0.11;fill:#6E6E96;enable-background:new    ;"></path>
		</g>
		<g style="display:inline;">
			<g>
				<path d="M217.773,140.916c0-16.621-14.461-30.094-32.299-30.094c-0.278,0-0.554,0.012-0.828,0.019
					c-5.632-8.815-15.959-14.729-27.771-14.729c-17.838,0-32.301,13.475-32.301,30.096c0,0.215,0.014,0.429,0.018,0.646
					c-9.755,5.18-16.339,14.944-16.339,26.156c0,16.62,14.462,30.099,32.3,30.099c1.014,0,2.018-0.051,3.008-0.14
					c5.926,6.688,14.891,10.95,24.921,10.95c16.489,0,30.081-11.514,32.049-26.379C210.782,162.498,217.773,152.469,217.773,140.916
					z" style="fill:#D7F7E4;"></path>
				<path d="M168.482,195.42c-9.84,0-19.102-3.962-25.537-10.896c-0.817,0.057-1.619,0.086-2.392,0.086
					c-18.637,0-33.8-14.175-33.8-31.599c0-11.045,6.229-21.323,16.322-27.035c0.134-17.315,15.245-31.363,33.8-31.363
					c11.535,0,22.397,5.615,28.566,14.71c18.652-0.032,33.831,14.163,33.831,31.594c0,11.516-6.635,22.026-17.37,27.612
					C199.444,183.914,185.226,195.42,168.482,195.42z M144.181,181.408l0.503,0.566c5.881,6.639,14.555,10.445,23.798,10.445
					c15.53,0,28.67-10.78,30.562-25.076l0.105-0.795l0.72-0.354c10.118-4.978,16.404-14.664,16.404-25.279
					c0-15.767-13.816-28.594-30.799-28.594c-0.182,0-0.362,0.006-0.543,0.011l-1.094,0.028l-0.455-0.713
					c-5.531-8.658-15.688-14.036-26.507-14.036c-16.983,0-30.801,12.828-30.801,28.596c0,0.106,0.004,0.212,0.008,0.318l0.025,1.222
					l-0.812,0.432c-9.587,5.09-15.542,14.604-15.542,24.831c0,15.77,13.817,28.599,30.8,28.599c0.919,0,1.886-0.045,2.874-0.134
					L144.181,181.408z" style="fill:#CCCCDE;"></path>
			</g>
			<path d="M184.931,109.738c-0.276,0-0.552,0.012-0.827,0.019
				c-4.516-7.069-12.051-12.269-20.949-14.052c7.041,1.768,12.973,6.049,16.614,11.751c0.237-0.006,3.476,5.586,3.713,5.586
				c15.31,0,22.431,8.248,22.431,22.512c0,9.913-3.717,16.231-12.515,20.563c-1.687,12.754-13.353,22.635-27.5,22.635
				c-8.608,0-16.302-3.655-21.387-9.395c-0.851,0.069-1.71,0.112-2.58,0.112c-15.31,0-27.332-7.255-27.332-21.517
				c0-9.604,4.298-14.336,12.12-20.039c-0.209-1.232-1.077-12.104,1.82-15.002c6.89-6.89,10.011-12.808,16.174-15.868
				c-12.096,4.351-20.679,15.277-20.679,28.08c0,0.215,0.011,0.429,0.017,0.646c-9.756,5.177-16.34,14.945-16.34,26.155
				c0,16.62,14.461,30.099,32.3,30.099c1.017,0,2.017-0.049,3.008-0.135c5.925,6.688,14.892,10.945,24.922,10.945
				c16.487,0,30.078-11.514,32.046-26.379c10.256-5.043,17.244-15.066,17.244-26.623
				C217.231,123.211,202.77,109.738,184.931,109.738z" style="opacity:0.1;fill:#6E6E96;enable-background:new    ;"></path>
			<g>
				<path d="M138.959,157.193c0,0,16.727,3.271,16.727,19.643c0,0,4.504,27.807-12.902,47.479h40.193
					c-0.396-0.556-35.105-46.922,3.521-74.484C162.939,163.293,138.959,157.193,138.959,157.193z" style="fill:#EDE3DA;"></path>
				<path d="M182.977,225.815h-43.523l2.207-2.494c16.741-18.922,12.589-45.975,12.545-46.245l-0.02-0.24
					c0-13.558-12.515-17.421-15.085-18.07c-0.336-0.073-0.512-0.118-0.512-0.118l0.658-2.926c0,0,0.192,0.037,0.54,0.123
					c1.349,0.295,6.155,1.228,12.809,1.228c8.306,0,20.801-1.482,33.158-8.544l1.615,2.523c-9.676,6.904-15.425,15.64-17.086,25.963
					c-3.517,21.843,12.081,43.924,13.871,46.37l1.746,2.386L182.977,225.815z M145.973,222.815h34.146
					c-4.571-6.931-15.966-26.597-12.797-46.277c1.266-7.862,4.703-14.854,10.254-20.885c-9.524,3.548-18.481,4.419-24.979,4.419
					c-1.403,0-2.725-0.039-3.954-0.104c4.313,3.1,8.505,8.287,8.544,16.75C157.523,178.925,160.875,203.588,145.973,222.815z" style="fill:#CCCCDE;"></path>
			</g>
			<g>
				<path d="M149.552,124.362" style="fill:#D57E58;"></path>
			</g>
			<path d="M176.472,157.148c0,0-25.378,32.766-5.873,67.164h12.378
				C182.977,224.313,157.223,188.32,176.472,157.148z" style="opacity:0.11;fill:#6E6E96;enable-background:new    ;"></path>
		</g>
		<g style="display:inline;">
			<g>
				<path d="M145.936,142.027c0-13.646-11.873-24.707-26.517-24.707c-0.229,0-0.454,0.01-0.682,0.016
					c-4.622-7.237-13.102-12.092-22.8-12.092c-14.644,0-26.518,11.063-26.518,24.706c0,0.178,0.012,0.354,0.015,0.529
					c-8.01,4.252-13.414,12.271-13.414,21.477c0,13.646,11.872,24.707,26.52,24.707c0.832,0,1.653-0.041,2.469-0.105
					c4.864,5.484,12.224,8.984,20.46,8.984c13.537,0,24.695-9.451,26.309-21.652C140.196,159.746,145.936,151.514,145.936,142.027z" style="fill:#D7F7E4;"></path>
				<path d="M105.469,187.042c-8.109,0-15.747-3.248-21.079-8.938c-0.652,0.039-1.262,0.059-1.85,0.059
					c-15.45,0-28.02-11.757-28.02-26.207c0-9.118,5.111-17.604,13.402-22.355c0.2-14.29,12.69-25.856,28.015-25.856
					c9.51,0,18.469,4.606,23.595,12.076c15.397,0.058,27.903,11.792,27.903,26.207c0,9.511-5.454,18.196-14.288,22.848
					C131.051,177.567,119.3,187.042,105.469,187.042z M85.635,175.003l0.496,0.56c4.78,5.389,11.828,8.479,19.338,8.479
					c12.617,0,23.288-8.748,24.821-20.349l0.105-0.795l0.72-0.354c8.216-4.045,13.32-11.906,13.32-20.517
					c0-12.797-11.223-23.207-25.017-23.207c-0.148,0-0.294,0.005-0.44,0.009l-1.05,0.028l-0.456-0.714
					c-4.491-7.031-12.743-11.399-21.536-11.399c-13.795,0-25.018,10.41-25.018,23.206l0.03,1.423l-0.812,0.432
					c-7.783,4.131-12.617,11.853-12.617,20.151c0,12.797,11.224,23.207,25.02,23.207c0.724,0,1.492-0.033,2.351-0.101
					L85.635,175.003z" style="fill:#CCCCDE;"></path>
			</g>
			<path d="M118.973,116.432c-0.228,0-0.452,0.009-0.679,0.015
				c-3.707-5.805-9.896-10.072-17.199-11.537c5.78,1.45,10.648,4.966,13.641,9.647c0.194-0.006,2.853,4.586,3.05,4.586
				c12.565,0,18.414,6.771,18.414,18.479c0,8.14-3.052,13.326-10.271,16.881c-1.384,10.475-10.961,18.584-22.576,18.584
				c-7.067,0-13.384-3.004-17.559-7.715c-0.698,0.062-1.404,0.097-2.118,0.097c-12.568,0-22.438-5.957-22.438-17.664
				c0-7.886,3.528-11.771,9.949-16.45c-0.171-1.018-0.884-9.938,1.496-12.316c5.655-5.657,8.218-10.515,13.277-13.027
				c-9.932,3.57-16.979,12.542-16.979,23.055c0,0.176,0.012,0.352,0.017,0.525c-8.013,4.25-13.415,12.271-13.415,21.479
				c0,13.645,11.873,24.707,26.518,24.707c0.834,0,1.655-0.041,2.469-0.109c4.864,5.488,12.226,8.988,20.461,8.988
				c13.536,0,24.693-9.451,26.312-21.656c8.418-4.141,14.158-12.371,14.158-21.854C145.491,127.494,133.618,116.432,118.973,116.432
				z" style="opacity:0.1;fill:#6E6E96;enable-background:new    ;"></path>
			<g>
				<path d="M81.232,155.391c0,0,13.731,2.688,13.731,16.129c0,0,3.697,22.821-10.595,38.977h33
					c-0.328-0.455-28.824-38.52,2.89-61.151C100.918,160.398,81.232,155.391,81.232,155.391z" style="fill:#EDE3DA;"></path>
				<path d="M117.368,211.997h-36.33l2.206-2.494c13.636-15.413,10.273-37.522,10.237-37.743l-0.019-0.239
					c0-10.927-10.094-14.05-12.18-14.577c-0.277-0.062-0.421-0.098-0.421-0.098l0.658-2.926c0,0,0.16,0.03,0.45,0.103
					c1.104,0.241,5.024,1,10.455,1c6.787,0,16.996-1.211,27.089-6.979l1.615,2.523c-7.892,5.632-12.576,12.754-13.924,21.168
					c-2.861,17.866,9.888,35.854,11.351,37.846l1.753,2.388L117.368,211.997z M87.53,208.997h26.991
					c-3.932-6.046-12.823-21.844-10.278-37.737c0.989-6.177,3.596-11.705,7.778-16.519c-7.479,2.623-14.467,3.281-19.597,3.281
					c-0.832,0-1.629-0.016-2.389-0.045c3.334,2.627,6.391,6.832,6.427,13.425C96.756,173.339,99.41,193.244,87.53,208.997z" style="fill:#CCCCDE;"></path>
			</g>
			<g>
				<path d="M89.928,128.438" style="fill:#D57E58;"></path>
			</g>
			<path d="M112.028,155.355c0,0-20.835,26.896-4.819,55.141h10.162
				C117.369,210.496,96.225,180.945,112.028,155.355z" style="opacity:0.11;fill:#6E6E96;enable-background:new    ;"></path>
		</g>
		<g style="display:inline;">
			<g>
				<path d="M253.159,166.164c0-12.344-10.74-22.35-23.988-22.35c-0.203,0-0.407,0.008-0.611,0.014
					c-4.186-6.549-11.854-10.938-20.625-10.938c-13.248,0-23.984,10.008-23.984,22.35c0,0.162,0.012,0.318,0.014,0.479
					c-7.244,3.851-12.135,11.104-12.135,19.433c0,12.346,10.735,22.352,23.984,22.352c0.753,0,1.497-0.039,2.23-0.102
					c4.398,4.967,11.061,8.133,18.511,8.133c12.245,0,22.339-8.551,23.799-19.592C247.965,182.191,253.159,174.746,253.159,166.164z" style="fill:#D7F7E4;"></path>
				<path d="M216.555,207.034c-7.355,0-14.282-2.937-19.127-8.083c-0.562,0.034-1.096,0.052-1.614,0.052
					c-14.052,0-25.484-10.7-25.484-23.852c0-8.271,4.622-15.974,12.125-20.311c0.228-12.967,11.57-23.45,25.48-23.45
					c8.621,0,16.747,4.165,21.42,10.925c13.971,0.092,25.305,10.755,25.305,23.849c0,8.632-4.937,16.519-12.937,20.763
					C239.782,198.445,229.111,207.034,216.555,207.034z M198.667,195.843l0.5,0.564c4.293,4.847,10.63,7.627,17.388,7.627
					c11.341,0,20.934-7.862,22.312-18.288l0.105-0.795l0.719-0.354c7.383-3.638,11.969-10.701,11.969-18.433
					c0-11.496-10.088-20.85-22.488-20.85c-0.147,0-0.295,0.005-0.442,0.01l-0.976,0.027l-0.457-0.716
					c-4.039-6.319-11.458-10.245-19.361-10.245c-12.397,0-22.484,9.354-22.484,20.85l0.024,1.374l-0.807,0.429
					c-6.994,3.718-11.339,10.656-11.339,18.108c0,11.498,10.087,20.852,22.484,20.852c0.656,0,1.344-0.031,2.104-0.096
					L198.667,195.843z" style="fill:#CCCCDE;"></path>
			</g>
			<path d="M228.767,143.008c-0.206,0-0.409,0.014-0.614,0.018
				c-3.354-5.25-8.947-9.111-15.558-10.438c5.229,1.313,9.633,4.492,12.339,8.729c0.175-0.004,2.579,4.146,2.757,4.146
				c11.368,0,16.655,6.123,16.655,16.721c0,7.359-2.757,12.055-9.291,15.27c-1.252,9.473-9.915,16.814-20.423,16.814
				c-6.396,0-12.106-2.723-15.884-6.98c-0.631,0.055-1.271,0.086-1.916,0.086c-11.368,0-20.299-5.389-20.299-15.979
				c0-7.137,3.188-10.646,9.002-14.887c-0.156-0.918-0.805-8.984,1.353-11.141c5.116-5.117,7.437-9.512,12.011-11.785
				c-8.979,3.23-15.355,11.347-15.355,20.855c0,0.157,0.012,0.314,0.016,0.479c-7.246,3.847-12.137,11.104-12.137,19.429
				c0,12.345,10.738,22.351,23.988,22.351c0.754,0,1.496-0.035,2.229-0.101c4.401,4.968,11.062,8.134,18.509,8.134
				c12.245,0,22.338-8.555,23.801-19.593c7.613-3.743,12.811-11.19,12.811-19.771C252.754,153.016,242.016,143.008,228.767,143.008z" style="opacity:0.1;fill:#6E6E96;enable-background:new    ;"></path>
			<g>
				<path d="M194.625,178.252c0,0,12.422,2.434,12.422,14.588c0,0,3.345,20.646-9.584,35.262h29.853
					c-0.296-0.41-26.071-34.85,2.615-55.318C212.435,182.783,194.625,178.252,194.625,178.252z" style="fill:#EDE3DA;"></path>
				<path d="M227.316,229.601h-33.182l2.206-2.494c12.315-13.922,9.259-33.828,9.227-34.027l-0.02-0.24
					c0-9.771-9.036-12.571-10.909-13.045c-0.252-0.056-0.383-0.09-0.383-0.09l0.658-2.925c0,0,0.147,0.027,0.412,0.094
					c0.999,0.218,4.531,0.902,9.428,0.902c6.122,0,15.33-1.093,24.434-6.296l1.615,2.523c-7.105,5.07-11.323,11.48-12.536,19.053
					c-2.58,16.108,8.92,32.334,10.24,34.132l1.754,2.388L227.316,229.601z M200.609,226.601h23.868
					c-3.633-5.64-11.454-19.78-9.173-34.02c0.871-5.444,3.124-10.332,6.724-14.61c-6.594,2.236-12.736,2.805-17.274,2.805
					c-0.6,0-1.18-0.01-1.739-0.027c2.908,2.411,5.498,6.182,5.533,11.973C208.82,194.534,211.169,212.371,200.609,226.601z" style="fill:#CCCCDE;"></path>
			</g>
			<g>
				<path d="M202.493,153.871" style="fill:#D57E58;"></path>
			</g>
			<path d="M222.485,178.219c0,0-18.847,24.334-4.359,49.882h9.19
				C227.316,228.1,208.189,201.369,222.485,178.219z" style="opacity:0.11;fill:#6E6E96;enable-background:new    ;"></path>
		</g>
		<g style="display:inline;">
			<g>
				<path d="M88.893,164.313c0-13.111-11.408-23.738-25.479-23.738c-0.222,0-0.438,0.008-0.653,0.014
					c-4.443-6.954-12.589-11.613-21.907-11.613c-14.069,0-25.479,10.629-25.479,23.736c0,0.17,0.011,0.336,0.015,0.507
					C7.694,157.302,2.5,165.011,2.5,173.857c0,13.105,11.407,23.735,25.479,23.735c0.8,0,1.59-0.041,2.372-0.104
					c4.674,5.271,11.745,8.639,19.659,8.639c13.007,0,23.729-9.082,25.279-20.809C83.378,181.336,88.893,173.427,88.893,164.313z" style="fill:#D7F7E4;"></path>
				<path d="M50.01,207.628c-7.795,0-15.142-3.122-20.278-8.592c-0.622,0.038-1.201,0.057-1.753,0.057
					C13.103,199.093,1,187.772,1,173.857c0-8.774,4.911-16.939,12.878-21.517c0.213-13.745,12.232-24.865,26.976-24.865
					c9.146,0,17.764,4.424,22.703,11.6c14.811,0.072,26.836,11.366,26.836,25.238c0,9.149-5.242,17.507-13.734,21.991
					C74.628,198.516,63.319,207.628,50.01,207.628z M30.977,195.934l0.496,0.56c4.584,5.169,11.341,8.134,18.537,8.134
					c12.094,0,22.323-8.386,23.792-19.505l0.105-0.795l0.719-0.354c7.875-3.878,12.766-11.411,12.766-19.66
					c0-12.263-10.757-22.238-23.979-22.238c-0.164,0-0.323,0.005-0.483,0.01l-0.978,0.026l-0.457-0.715
					c-4.304-6.736-12.214-10.921-20.643-10.921c-13.222,0-23.979,9.976-23.979,22.236l0.036,1.397l-0.818,0.435
					C8.634,158.502,4,165.902,4,173.857c0,12.261,10.757,22.235,23.979,22.235c0.684,0,1.421-0.032,2.252-0.099L30.977,195.934z" style="fill:#CCCCDE;"></path>
			</g>
			<path d="M62.986,139.719c-0.219,0-0.435,0.011-0.65,0.017
				c-3.563-5.578-9.506-9.678-16.525-11.086c5.553,1.393,10.231,4.771,13.106,9.27c0.186-0.004,2.737,4.406,2.928,4.406
				c12.076,0,17.692,6.506,17.692,17.758c0,7.82-2.931,12.807-9.87,16.223c-1.33,10.062-10.531,17.854-21.693,17.854
				c-6.792,0-12.859-2.885-16.871-7.412c-0.67,0.059-1.348,0.092-2.035,0.092c-12.074,0-21.561-5.723-21.561-16.975
				c0-7.574,3.391-11.307,9.561-15.807c-0.165-0.977-0.85-9.551,1.438-11.837c5.435-5.435,7.896-10.103,12.758-12.517
				c-9.541,3.431-16.312,12.051-16.312,22.148c0,0.17,0.011,0.338,0.015,0.508c-7.696,4.084-12.89,11.791-12.89,20.637
				c0,13.107,11.406,23.736,25.479,23.736c0.801,0,1.591-0.039,2.373-0.104c4.674,5.273,11.745,8.641,19.659,8.641
				c13.006,0,23.728-9.082,25.276-20.811c8.091-3.979,13.604-11.891,13.604-21.002C88.466,150.345,77.058,139.719,62.986,139.719z" style="opacity:0.1;fill:#6E6E96;enable-background:new    ;"></path>
			<g>
				<path d="M26.723,177.152c0,0,13.193,2.584,13.193,15.496c0,0,3.553,21.932-10.181,37.451h31.707
					c-0.312-0.438-27.692-37.018,2.777-58.762C45.638,181.963,26.723,177.152,26.723,177.152z" style="fill:#EDE3DA;"></path>
				<path d="M61.443,231.599H26.405l2.207-2.494c13.111-14.815,9.858-36.005,9.824-36.217l-0.02-0.24
					c0-10.454-9.662-13.443-11.659-13.948c-0.266-0.059-0.404-0.094-0.404-0.094l0.658-2.926c0,0,0.154,0.029,0.433,0.099
					c1.061,0.231,4.818,0.959,10.028,0.959c6.515,0,16.315-1.162,26.004-6.702l1.616,2.522c-7.56,5.396-12.051,12.216-13.349,20.271
					c-2.754,17.102,9.48,34.429,10.885,36.348l1.745,2.386L61.443,231.599z M32.891,228.599h25.712
					c-3.807-5.892-12.27-21.057-9.823-36.246c0.944-5.862,3.402-11.115,7.335-15.7c-7.115,2.464-13.757,3.085-18.644,3.085
					c-0.733,0-1.438-0.013-2.113-0.037c3.159,2.539,6.022,6.566,6.058,12.829C41.701,194.417,44.23,213.474,32.891,228.599z" style="fill:#CCCCDE;"></path>
			</g>
			<g>
				<path d="M35.078,151.254" style="fill:#D57E58;"></path>
			</g>
			<path d="M56.313,177.117c0,0-20.02,25.848-4.633,52.982h9.764
				C61.444,230.1,41.129,201.707,56.313,177.117z" style="opacity:0.11;fill:#6E6E96;enable-background:new    ;"></path>
		</g>
	</g>
	<path d="M214.225,57.646h-14c-0.828,0-1.5-0.671-1.5-1.5s0.672-1.5,1.5-1.5h14c0.828,0,1.5,0.671,1.5,1.5
		S215.053,57.646,214.225,57.646z" style="fill:#FFFFFF;"></path>
	<path d="M228.225,57.646h-4c-0.828,0-1.5-0.671-1.5-1.5s0.672-1.5,1.5-1.5h4c0.828,0,1.5,0.671,1.5,1.5
		S229.053,57.646,228.225,57.646z" style="fill:#FFFFFF;"></path>
	<path d="M238.26,66.646h-18.035c-0.828,0-1.5-0.671-1.5-1.5s0.672-1.5,1.5-1.5h18.035
		c0.828,0,1.5,0.671,1.5,1.5S239.088,66.646,238.26,66.646z" style="fill:#FFFFFF;"></path>
	<path d="M209.225,66.646h-5c-0.828,0-1.5-0.671-1.5-1.5s0.672-1.5,1.5-1.5h5c0.828,0,1.5,0.671,1.5,1.5
		S210.053,66.646,209.225,66.646z" style="fill:#FFFFFF;"></path>
	<path d="M32.225,134.146h-9c-0.829,0-1.5-0.672-1.5-1.5s0.671-1.5,1.5-1.5h9c0.829,0,1.5,0.672,1.5,1.5
		S33.053,134.146,32.225,134.146z" style="fill:#FFFFFF;"></path>
	<path d="M17.725,134.146h-5.5c-0.829,0-1.5-0.672-1.5-1.5s0.671-1.5,1.5-1.5h5.5c0.829,0,1.5,0.672,1.5,1.5
		S18.553,134.146,17.725,134.146z" style="fill:#FFFFFF;"></path>
	<path d="M24.975,126.896h-15.5c-0.829,0-1.5-0.672-1.5-1.5c0-0.829,0.671-1.5,1.5-1.5h15.5
		c0.829,0,1.5,0.671,1.5,1.5C26.475,126.224,25.803,126.896,24.975,126.896z" style="fill:#FFFFFF;"></path>
	<path d="M36.725,126.896h-4.5c-0.829,0-1.5-0.672-1.5-1.5c0-0.829,0.671-1.5,1.5-1.5h4.5
		c0.829,0,1.5,0.671,1.5,1.5C38.225,126.224,37.553,126.896,36.725,126.896z" style="fill:#FFFFFF;"></path>
</g>
<g style="opacity:0.44;" id="Layer_2_2_">
	<path d="M63.64,134.246c-1.181,0-2.367-0.416-3.32-1.263c-2.064-1.835-2.25-4.995-0.416-7.059
		c14.968-16.841,34.599-28.02,56.771-32.33c18.103-3.518,36.787-2.086,54.037,4.142c2.597,0.938,3.942,3.804,3.005,6.401
		c-0.938,2.598-3.799,3.943-6.401,3.005c-15.551-5.615-32.404-6.906-48.732-3.731c-20,3.887-37.707,13.969-51.205,29.156
		C66.391,133.678,65.019,134.246,63.64,134.246z" style="fill:#F59FB3;"></path>
	<path d="M51.847,175.16c-0.473,0-0.954-0.067-1.431-0.209c-2.646-0.789-4.152-3.574-3.363-6.221
		c10.144-34.024,38.08-59.366,72.907-66.135c40.089-7.792,80.552,10.822,100.694,46.312c1.363,2.401,0.521,5.453-1.881,6.816
		c-2.402,1.364-5.453,0.522-6.816-1.881c-18.021-31.751-54.226-48.401-90.089-41.432c-31.16,6.056-56.156,28.73-65.232,59.176
		C55.99,173.758,54.001,175.16,51.847,175.16z" style="fill:#FFFF75;"></path>
	<path d="M56.67,190.185c-0.213,0-0.429-0.014-0.646-0.042c-2.739-0.354-4.672-2.86-4.319-5.599
		c4.825-37.382,32.943-67.332,69.969-74.528c27.596-5.361,56.271,2.982,76.721,22.319c2.006,1.897,2.095,5.062,0.197,7.068
		c-1.896,2.006-5.061,2.096-7.068,0.197c-18.113-17.127-43.514-24.518-67.941-19.769c-32.788,6.372-57.687,32.893-61.959,65.991
		C61.297,188.345,59.146,190.184,56.67,190.185z" style="fill:#AFEB75;"></path>
	<path d="M208.78,176.051c-2.067,0-4.001-1.292-4.721-3.354c-11.311-32.417-45.301-51.915-79.065-45.353
		c-17.678,3.435-33.146,13.415-43.555,28.103c-1.597,2.254-4.717,2.785-6.971,1.188c-2.253-1.597-2.785-4.717-1.188-6.97
		c11.904-16.797,29.592-28.21,49.807-32.138c18.915-3.676,38.504-0.382,55.156,9.274c16.489,9.564,29.012,24.692,35.259,42.6
		c0.91,2.607-0.467,5.459-3.073,6.368C209.882,175.961,209.325,176.051,208.78,176.051z" style="fill:#75D5EB;"></path>
</g>
<g id="Layer_3_2_">
</g>
<g id="Layer_2">
	<g>
		<path d="M240.18,115.55c0.725-2.219,2.993-4.942,5.045-6.057l0.009-0.004c2.056-1.113,2.056-2.932,0-4.043
			l-0.009-0.006c-2.052-1.111-4.438-3.617-5.3-5.566c-0.863-1.951-2.275-1.951-3.14,0c-0.862,1.951-3.248,4.455-5.305,5.566
			l-0.01,0.006c-2.055,1.111-2.055,2.93,0,4.043l0.01,0.004c2.057,1.112,4.321,3.838,5.045,6.057l0.516,1.568
			c0.724,2.22,1.898,2.22,2.627,0L240.18,115.55z" style="fill:#FFBF00;"></path>
	</g>
	<g>
		<path d="M26.998,56c0.677-2.079,2.803-4.632,4.728-5.673l0.008-0.004c1.923-1.042,1.923-2.746,0-3.787
			l-0.008-0.005c-1.922-1.042-4.157-3.388-4.966-5.215c-0.808-1.826-2.131-1.826-2.937,0c-0.81,1.828-3.046,4.173-4.966,5.215
			l-0.01,0.005c-1.92,1.041-1.92,2.745,0,3.787l0.01,0.004c1.92,1.041,4.05,3.595,4.729,5.673l0.478,1.47
			c0.679,2.079,1.784,2.079,2.461,0L26.998,56z" style="fill:#FFB0B8;"></path>
	</g>
	<g>
		<path d="M13.234,191.22c0.615-1.888,2.546-4.206,4.292-5.15l0.009-0.005c1.744-0.944,1.744-2.493,0-3.438
			l-0.009-0.006c-1.746-0.942-3.773-3.076-4.508-4.734c-0.733-1.657-1.936-1.657-2.67,0c-0.731,1.658-2.763,3.792-4.509,4.734
			l-0.007,0.006c-1.746,0.943-1.746,2.492,0,3.438l0.007,0.005c1.746,0.944,3.677,3.267,4.292,5.15l0.435,1.334
			c0.615,1.891,1.621,1.891,2.235,0L13.234,191.22z" style="fill:#7FDCFF;"></path>
	</g>
	<g id="Layer_7_1_">
		<path d="M226.623,211.893c0.635-1.947,2.626-4.34,4.428-5.315l0.009-0.003c1.802-0.978,1.802-2.574,0-3.546
			l-0.009-0.008c-1.802-0.977-3.894-3.174-4.65-4.887c-0.758-1.709-2-1.709-2.759,0c-0.754,1.713-2.85,3.91-4.649,4.887
			l-0.009,0.008c-1.803,0.972-1.803,2.567,0,3.546l0.009,0.003c1.802,0.979,3.794,3.372,4.428,5.315l0.452,1.375
			c0.631,1.948,1.673,1.948,2.303,0L226.623,211.893z" style="fill:#DEC2FF;"></path>
	</g>
	<g>
		<path d="M199.967,25.5c0.465-1.429,1.926-3.184,3.248-3.896l0.006-0.003c1.32-0.718,1.32-1.89,0-2.604
			l-0.006-0.003c-1.32-0.717-2.855-2.328-3.412-3.584c-0.555-1.255-1.465-1.255-2.019,0c-0.557,1.256-2.093,2.867-3.411,3.584
			l-0.007,0.003c-1.319,0.715-1.319,1.886,0,2.604l0.007,0.003c1.318,0.715,2.779,2.47,3.248,3.896l0.329,1.009
			c0.466,1.432,1.226,1.432,1.689,0L199.967,25.5z" style="fill:#FFB0B8;"></path>
	</g>
	<g>
		<path d="M157.475,233.504c0.465-1.429,1.926-3.184,3.248-3.896l0.006-0.003c1.32-0.717,1.32-1.89,0-2.604
			l-0.006-0.003c-1.32-0.717-2.854-2.328-3.412-3.584c-0.555-1.255-1.465-1.255-2.019,0c-0.557,1.256-2.091,2.867-3.411,3.584
			L151.875,227c-1.319,0.715-1.319,1.887,0,2.604l0.007,0.003c1.32,0.715,2.781,2.47,3.248,3.896l0.329,1.011
			c0.466,1.43,1.226,1.43,1.689,0L157.475,233.504z" style="fill:#FFB0B8;"></path>
	</g>
	<g>
		<path d="M26.977,105.898c0.465-1.43,1.926-3.186,3.248-3.898l0.006-0.003c1.32-0.716,1.32-1.888,0-2.603
			l-0.006-0.003c-1.32-0.719-2.854-2.328-3.412-3.584c-0.555-1.256-1.465-1.256-2.019,0c-0.557,1.256-2.091,2.865-3.411,3.584
			l-0.007,0.003c-1.319,0.715-1.319,1.886,0,2.603L21.383,102c1.32,0.715,2.781,2.471,3.248,3.898l0.329,1.009
			c0.466,1.43,1.226,1.43,1.689,0L26.977,105.898z" style="fill:#FFFF00;"></path>
	</g>
</g>
<g>
	<path d="M229.961,152.422c0-0.082,0.007-0.161,0.007-0.243c0-8.568-7.56-15.519-16.889-15.519
		c-8.026,0-14.744,5.151-16.457,12.051c-0.267-0.019-0.53-0.031-0.799-0.031c-5.551,0-10.048,4.135-10.048,9.23
		c0,1.092,0.21,2.142,0.591,3.113c-1.559,2.021-2.477,4.492-2.477,7.155c0,6.759,5.881,12.25,13.196,12.396v0.007h25.946
		c8.894,0,16.104-6.626,16.104-14.801C239.138,159.889,235.387,154.802,229.961,152.422z" style="fill:#FFFFFF;"></path>
	<path d="M223.032,182.082h-25.946c-0.062,0-0.122-0.004-0.182-0.011
		c-8.018-0.236-14.515-6.439-14.515-13.893c0-2.646,0.794-5.189,2.305-7.405c-0.278-0.93-0.419-1.89-0.419-2.863
		c0-5.816,5.007-10.567,11.227-10.727c2.345-7.137,9.396-12.023,17.577-12.023c9.882,0,17.969,7.252,18.373,16.307
		c5.612,2.837,9.186,8.358,9.184,14.315C240.636,174.769,232.74,182.082,223.032,182.082z M197.23,179.082h25.803
		c8.053,0,14.604-5.967,14.604-13.301c0.002-5.075-3.247-9.779-8.277-11.985c-0.545-0.239-0.897-0.778-0.897-1.374l0.005-0.186
		c0.002-7.787-6.901-14.076-15.387-14.076c-7.122,0-13.432,4.589-15.001,10.912c-0.176,0.708-0.837,1.203-1.561,1.135
		c-0.231-0.016-0.461-0.027-0.694-0.027c-4.713,0-8.548,3.468-8.548,7.73c0,0.878,0.164,1.741,0.487,2.565
		c0.192,0.491,0.113,1.047-0.209,1.464c-1.416,1.836-2.164,3.993-2.164,6.239c0,5.879,5.261,10.768,11.727,10.896
		C197.155,179.076,197.193,179.078,197.23,179.082z" style="fill:#CCCCDE;"></path>
</g>
<g>
	<path d="M76.796,178.802c0-0.066,0.006-0.134,0.006-0.199c0-7.004-6.179-12.685-13.804-12.685
		c-6.562,0-12.053,4.21-13.451,9.852c-0.216-0.018-0.435-0.026-0.653-0.026c-4.535,0-8.21,3.379-8.21,7.545
		c0,0.895,0.171,1.75,0.481,2.545c-1.272,1.652-2.022,3.671-2.022,5.851c0,5.521,4.809,10.013,10.786,10.132v0.006h21.207
		c7.269,0,13.162-5.416,13.162-12.097C84.296,184.905,81.23,180.747,76.796,178.802z" style="fill:#FFFFFF;"></path>
	<path d="M71.136,203.322H49.929c-0.058,0-0.116-0.003-0.172-0.01c-6.693-0.204-12.114-5.393-12.114-11.628
		c0-2.176,0.64-4.269,1.858-6.102c-0.21-0.747-0.317-1.516-0.317-2.294c0-4.844,4.107-8.81,9.249-9.035
		c2.01-5.847,7.828-9.835,14.566-9.835c8.166,0,14.859,5.959,15.282,13.432c4.595,2.385,7.516,6.95,7.518,11.874
		C85.798,197.222,79.22,203.322,71.136,203.322z M50.062,200.322h21.074c6.431,0,11.662-4.754,11.662-10.597
		c-0.001-4.042-2.594-7.79-6.604-9.549c-0.545-0.239-0.897-0.778-0.897-1.374l0.004-0.166c0.001-6.2-5.518-11.218-12.302-11.218
		c-5.699,0-10.744,3.664-11.995,8.713c-0.177,0.713-0.846,1.186-1.578,1.134c-0.176-0.015-0.354-0.021-0.532-0.021
		c-3.7,0-6.71,2.712-6.71,6.045c0,0.684,0.127,1.356,0.378,1.999c0.191,0.49,0.112,1.044-0.208,1.461
		c-1.119,1.453-1.711,3.16-1.711,4.936c0,4.657,4.179,8.529,9.316,8.632C49.993,200.317,50.028,200.319,50.062,200.322z" style="fill:#CCCCDE;"></path>
</g>
<g>
	<path d="M114.439,156.307c-84.899-34.24-69.912-81.573-51.881-85.235
		c14.836-3.014,18.317,10.163,18.317,10.163s1.679,8.145-4.224,8.145c-5.899,0-4.261-10.984-11.473-10.984
		c-8.85,0-21.665,37.747,40.454,67.556L114.439,156.307z" style="fill:#F7E6E6;"></path>
	<path d="M50.227,103.309c0,0,12.136,28.179,57.282,45.86
		l5.348,6.489C112.857,155.66,64.56,137.714,50.227,103.309z" style="opacity:0.37;fill:#D9A1A1;enable-background:new    ;"></path>
	<path d="M70.244,121.065L70.244,121.065
		C50.128,98.57,58.711,78.396,65.18,78.396c7.213,0,5.572,10.984,11.473,10.984c5.901,0,4.225-8.145,4.225-8.145
		s-0.326-1.225-1.195-2.839l0,0c0,0,1.233,3.898-3.898,3.898s-5.47-13.486-17.082-4.266C46.252,87.916,61.65,115.77,70.244,121.065z" style="opacity:0.37;fill:#D9A1A1;enable-background:new    ;"></path>
	<path d="M147.808,156.307c7.318-2.95,13.896-6.004,19.791-9.111c62.503-32.965,48.567-72.777,32.091-76.124
		c-14.834-3.014-18.316,10.163-18.316,10.163s-1.68,8.145,4.222,8.145c5.899,0,4.262-10.984,11.474-10.984
		c8.853,0,21.665,37.747-40.452,67.556L147.808,156.307z" style="fill:#F7E6E6;"></path>
	<path d="M211.806,104.044c0,0-12.136,28.177-57.282,45.86
		l-5.346,6.49C149.179,156.394,197.474,138.444,211.806,104.044z" style="opacity:0.37;fill:#D9A1A1;enable-background:new    ;"></path>
	<path d="M191.788,121.799L191.788,121.799
		c20.119-22.497,11.535-42.67,5.062-42.67c-7.211,0-5.572,10.984-11.474,10.984c-5.898,0-4.221-8.146-4.221-8.146
		s0.324-1.225,1.192-2.837l0,0c0,0-1.229,3.899,3.9,3.899s5.468-13.488,17.081-4.267
		C215.782,88.649,200.382,116.502,191.788,121.799z" style="opacity:0.37;fill:#D9A1A1;enable-background:new    ;"></path>
	<path d="M113.878,157.699c-24.568-9.909-42.783-21.665-54.141-34.942
		c-11.594-13.554-13.211-25.299-12.526-32.766c0.954-10.399,7.142-18.783,15.048-20.389c1.562-0.317,3.081-0.478,4.516-0.478
		c12.31,0,15.52,11.611,15.55,11.728c0.127,0.606,1.011,5.296-1.267,8.092c-0.72,0.883-2.068,1.936-4.407,1.936
		c-3.776,0-5.248-3.31-6.431-5.97c-1.382-3.109-2.366-5.015-5.042-5.015c-1.804,0-4.325,2.877-5.42,7.692
		c-1.188,5.222-4.529,32.513,46.523,57.011l0.288,0.138l9.012,10.6L113.878,157.699z M66.775,72.124
		c-1.235,0-2.553,0.141-3.918,0.418c-7.38,1.499-11.954,10.05-12.658,17.723c-2.036,22.188,19.923,45.207,59.034,62.234
		l-4.536-5.335c-52.802-25.451-49.138-54.641-47.863-60.243c1.343-5.904,4.775-10.027,8.346-10.027c4.762,0,6.437,3.768,7.783,6.796
		c1.295,2.912,2.035,4.188,3.689,4.188c1.256,0,1.788-0.473,2.079-0.828c1.178-1.44,0.887-4.471,0.675-5.517
		C79.321,81.235,76.743,72.124,66.775,72.124z" style="fill:#6E6E96;"></path>
	<path d="M148.368,157.699l-1.703-2.363l9.015-10.6l0.287-0.138c51.052-24.498,47.711-51.789,46.523-57.01
		c-1.096-4.815-3.617-7.693-5.422-7.693c-2.677,0-3.66,1.906-5.043,5.015c-1.183,2.66-2.654,5.97-6.431,5.97
		c-2.338,0-3.687-1.053-4.406-1.936c-2.277-2.796-1.393-7.486-1.284-8.012c0.05-0.198,3.26-11.809,15.568-11.809
		c1.435,0,2.954,0.161,4.516,0.478c7.376,1.499,13.489,9.247,14.866,18.844c0.912,6.358,0.285,16.461-7.881,28.485
		c-7.859,11.573-20.871,22.202-38.675,31.592C162.193,151.742,155.487,154.829,148.368,157.699z M157.553,147.165l-4.542,5.34
		c4.895-2.124,9.546-4.347,13.889-6.636c17.364-9.158,30.013-19.461,37.593-30.624c7.626-11.229,8.229-20.54,7.393-26.374
		c-1.199-8.364-6.338-15.079-12.494-16.329c-1.365-0.278-2.684-0.418-3.918-0.418c-10.024,0-12.624,9.399-12.649,9.495
		c-0.192,0.963-0.483,3.994,0.694,5.434c0.29,0.355,0.821,0.827,2.077,0.827c1.654,0,2.395-1.276,3.69-4.188
		c1.346-3.028,3.021-6.796,7.783-6.796c3.571,0,7.004,4.124,8.347,10.027C206.69,92.524,210.355,121.714,157.553,147.165z" style="fill:#6E6E96;"></path>
	<g>
		<path d="M114.413,195.142c1.201-1.766,3.931-3.206,6.063-3.206h21.477c2.136,0,4.861,1.439,6.063,3.206
			l1.479,2.165c1.204,1.765,2.188,4.587,2.188,6.271c0,1.688-1.748,3.065-3.882,3.065H114.63c-2.133,0-3.879-1.382-3.879-3.065
			s0.982-4.507,2.184-6.271L114.413,195.142z" style="fill:#CCCCDE;"></path>
		<path d="M147.801,208.144H114.63c-2.966,0-5.379-2.048-5.379-4.565c0-1.977,1.073-5.103,2.443-7.115
			l1.48-2.167c1.472-2.164,4.68-3.86,7.302-3.86h21.477c2.622,0,5.83,1.696,7.304,3.862l1.477,2.163
			c1.374,2.013,2.449,5.139,2.449,7.117C153.183,206.096,150.769,208.144,147.801,208.144z M120.477,193.436
			c-1.646,0-3.899,1.191-4.823,2.55l-1.48,2.167c-1.023,1.504-1.922,4.04-1.922,5.426c0,0.74,0.977,1.565,2.379,1.565h33.171
			c1.403,0,2.382-0.825,2.382-1.565c0-1.387-0.9-3.922-1.927-5.426l-1.478-2.165c-0.926-1.36-3.18-2.552-4.825-2.552H120.477z" style="fill:#6E6E96;"></path>
	</g>
	<path d="M102.639,212.409c0,0,0-1.987,0-4.415c0-2.429,2.938-4.415,6.528-4.415h44.063
		c3.592,0,6.526,1.986,6.526,4.415c0,2.428,0,4.415,0,4.415" style="fill:#CCCCDE;"></path>
	<g>
		<path d="M185.562,57.199c0,2.842-2.637,5.167-5.857,5.167H81.278c-3.224,0-5.857-2.325-5.857-5.167
			s2.635-5.166,5.857-5.166h98.426C182.925,52.033,185.562,54.358,185.562,57.199z" style="fill:#E6BABA;"></path>
	</g>
	<path d="M143.514,191.936c0-8.023-6.976-7.792-6.976-16.874c0-12.084,5.901-14.646,5.901-14.646
		c47.4-33.5,37.365-98.049,37.365-98.049H80.664c0,0-6.431,62.11,38.681,98.049c0,0,8.56,5.127,5.901,14.646
		c-2.443,8.747-6.978,8.851-6.978,16.874H143.514z" style="fill:#F7E6E6;"></path>
	<rect height="5.411" width="74.354" style="opacity:0.4;fill:#E6BABA;enable-background:new    ;" y="62.366" x="80.664"></rect>
	<path d="M142.467,160.427c47.372-33.544,37.282-98.083,37.282-98.083
		l-25.115,0.021c0,0,6.102,65.822-13.896,85.859c0,0-10.373,8.284-9.107,24.385c0,0,0.546,5.381,4.506,13.212
		c1.789,3.544,1.227,6.131,1.227,6.131l6.213-0.005c-0.01-8.024-6.985-7.786-6.994-16.869
		C136.571,162.997,142.467,160.427,142.467,160.427z" style="opacity:0.4;fill:#E6BABA;enable-background:new    ;"></path>
	<path d="M170.013,62.366c0,0,13.31,57.167-27.572,98.049
		c0,0,48.42-32.793,37.264-98.049H170.013z" style="opacity:0.45;fill:#CC9797;enable-background:new    ;"></path>
	<path d="M118.384,141.009
		c-12.512-22.429-10.252-72.865-10.252-72.865H92.455c0.424,13.644,3.104,48.588,18.973,73.229
		c6.779,10.529,12.314,18.697,14.185,25.131c1.566,2.938,2.671,4.604,1.464,8.924c-2.441,8.747-8.44,8.851-8.44,16.874h6.706
		c0-7.293,4.394-10.648,4.394-22.732C129.736,161.392,118.384,141.009,118.384,141.009z" style="opacity:0.5;fill:#FFFFFF;enable-background:new    ;"></path>
	<g>
		<path d="M160.32,57.24c0,2.842-2.637,5.167-5.857,5.167H89.845c-3.223,0-5.858-2.324-5.858-5.167
			c0-2.842,2.637-5.167,5.858-5.167h64.616C157.683,52.073,160.32,54.398,160.32,57.24z" style="fill:#F7E6E6;"></path>
	</g>
	<path d="M125.341,193.765v9.813h-8.543c0,0-0.126-7.848,1.838-9.813
		H125.341z" style="opacity:0.56;fill:#FFFFFF;enable-background:new    ;"></path>
	<path d="M137.365,191.936v11.644h14.315
		C151.682,203.58,150.366,191.936,137.365,191.936z" style="opacity:0.15;fill:#6E6E96;enable-background:new    ;"></path>
	<rect height="8.046" width="15.389" style="opacity:0.66;fill:#FFFFFF;enable-background:new    ;" y="204.363" x="109.952"></rect>
	<polygon points="160.738,208.748 158.54,212.409 141.452,212.409 
		141.452,203.58 153.9,203.58 156.932,205.186" style="opacity:0.15;fill:#6E6E96;enable-background:new    ;"></polygon>
	<path d="M161.259,213.909h-60.118v-5.915c0-3.316,3.526-5.915,8.028-5.915h44.063
		c4.501,0,8.026,2.599,8.026,5.915V213.909z M104.141,210.909h54.118v-2.915c0-1.379-2.064-2.915-5.026-2.915h-44.063
		c-2.963,0-5.028,1.536-5.028,2.915V210.909z" style="fill:#6E6E96;"></path>
	<path d="M145.014,193.436h-28.245v-1.5c0-4.911,1.609-7.241,3.312-9.709c1.326-1.921,2.698-3.908,3.72-7.568
		c2.309-8.27-4.922-12.771-5.231-12.959l-0.16-0.111c-23.657-18.846-33.065-44.868-36.793-63.378
		c-4.03-20.014-2.512-35.355-2.445-35.998l0.14-1.346H181.09l0.197,1.27c0.104,0.669,2.507,16.611-0.91,36.941
		c-3.165,18.825-12.165,44.96-37.071,62.563l-0.269,0.151c-0.185,0.087-4.999,2.485-4.999,13.271c0,4.136,1.528,5.955,3.299,8.062
		c1.724,2.052,3.677,4.378,3.677,8.812V193.436z M119.831,190.436h22.079c-0.35-2.38-1.534-3.79-2.871-5.382
		c-1.875-2.233-4.001-4.764-4.001-9.992c0-11.905,5.542-15.372,6.629-15.938c42.349-30.016,37.862-86.114,36.816-95.258H82.055
		c-0.572,9.198-2.067,63.211,38.149,95.316c3.311,2.029,8.811,7.956,6.486,16.282c-1.158,4.145-2.743,6.44-4.141,8.467
		C121.155,185.953,120.094,187.49,119.831,190.436z" style="fill:#6E6E96;"></path>
	<rect height="8.055" width="15.379" style="opacity:0.62;fill:#FFFFFF;enable-background:new    ;" y="52.766" x="92.021"></rect>
	<rect height="8.787" width="7.322" style="opacity:0.34;fill:#FFFFFF;enable-background:new    ;" y="52.033" x="114.723"></rect>
	<path d="M120.703,67.777c0,0-1.963,45.455,2.929,64.322
		c5.228,20.158,5.886,35.231,5.886,35.231s-6.203-25.381-10.28-37.675c-6.091-18.368-4.393-61.88-4.393-61.88L120.703,67.777
		L120.703,67.777z" style="opacity:0.34;fill:#E6BABA;enable-background:new    ;"></path>
	<path d="M165.618,213.909H98.225c-0.829,0-1.5-0.672-1.5-1.5s0.671-1.5,1.5-1.5h67.394
		c0.828,0,1.5,0.672,1.5,1.5S166.447,213.909,165.618,213.909z" style="fill:#6E6E96;"></path>
	<path d="M96.287,68.143c0,0,0.954,50.217,13.758,71.001c0,0-15.336-21.895-17.591-71.001H96.287z" style="fill:#FFFFFF;"></path>
	<rect height="8.055" width="3.181" style="fill:#FFFFFF;" y="52.766" x="92.021"></rect>
	<g>
		<path d="M179.704,63.866H81.278c-4.057,0-7.357-2.991-7.357-6.667c0-3.676,3.3-6.666,7.357-6.666h98.426
			c4.058,0,7.358,2.99,7.358,6.666C187.062,60.875,183.761,63.866,179.704,63.866z M81.278,53.533c-2.403,0-4.357,1.645-4.357,3.666
			c0,2.022,1.955,3.667,4.357,3.667h98.427c2.402,0,4.357-1.645,4.357-3.667c0-2.021-1.955-3.666-4.358-3.666H81.278z" style="fill:#6E6E96;"></path>
	</g>
	<g>
		<g>
			<path d="M106.347,101.297c-1.503,1.695-1.506,4.54-0.008,6.319l15.177,18.033
				c1.499,1.779,4.01,1.832,5.579,0.113l32.016-35.007c1.571-1.718,1.666-4.154,0.214-5.414c-1.452-1.261-4.137-1.107-5.958,0.334
				l-25.809,20.481c-1.822,1.445-4.877,1.539-6.785,0.207l-8.221-5.735C110.639,99.301,107.848,99.602,106.347,101.297z" style="fill:#BAFFD6;"></path>
			<path d="M124.351,128.518c-1.512,0-2.963-0.693-3.982-1.902l-15.177-18.034
				c-1.963-2.331-1.948-6.046,0.033-8.28c1.127-1.271,2.808-2.001,4.611-2.001c1.304,0,2.539,0.379,3.572,1.097l8.224,5.737
				c1.312,0.915,3.743,0.841,4.995-0.152l25.808-20.481c1.216-0.962,2.798-1.514,4.341-1.514c1.371,0,2.626,0.434,3.533,1.222
				c0.918,0.796,1.464,1.939,1.538,3.218c0.088,1.531-0.506,3.113-1.629,4.341l-32.015,35.007
				C127.176,127.899,125.808,128.518,124.351,128.518z M109.836,101.3c-0.932,0-1.816,0.371-2.366,0.991
				c-1.016,1.146-1.008,3.142,0.017,4.358l15.177,18.034c0.886,1.05,2.398,1.083,3.324,0.068l32.017-35.008
				c0.571-0.625,0.888-1.426,0.847-2.144c-0.02-0.328-0.123-0.79-0.51-1.125c-0.362-0.315-0.918-0.488-1.566-0.488
				c-0.88,0-1.783,0.315-2.478,0.865l-25.807,20.48c-1.198,0.95-2.793,1.473-4.493,1.473c-1.515,0-2.965-0.43-4.083-1.211
				l-8.221-5.735C111.176,101.499,110.515,101.3,109.836,101.3z" style="fill:#6E6E96;"></path>
		</g>
		<path d="M154.331,90.129l-27,29.524
			c-1.57,1.717-4.081,1.665-5.58-0.114l-15.403-18.242c-1.055,0.151-3.587,2.156-2.319,4.937c0.94,2.062,1.05,4.541,2.548,6.321
			l15.178,18.03c1.499,1.779,4.009,1.83,5.58,0.113l32.014-35.006c1.572-1.718,1.432-9.09-0.021-10.35
			C158.053,84.242,159.323,85.343,154.331,90.129z" style="opacity:0.15;fill:#6E6E96;enable-background:new    ;"></path>
	</g>
</g>
</svg>
