<svg t="1716378170598" class="icon" viewBox="0 0 1024 1024" version="1.1" xmlns="http://www.w3.org/2000/svg" p-id="7529"
	width="200" height="200">
	<path
		d="M720.9 697.6c-25.8 0-52.2-10-76-29.2-27.5-22.1-47.2-53.3-54.3-85.3L523.7 278l269.4-59.1L855.7 525c7 32.2 2.9 68.3-11.3 99.1-16.1 34.9-42.8 58.1-75.1 65.2l-27.3 6c-6.9 1.5-14 2.3-21.1 2.3z m-147.6-388l58 264.5c5 22.7 19.8 45.8 39.8 61.9 11.8 9.5 35.5 24.5 62 18.7l27.3-6c26-5.7 40.1-28.7 46.2-42 10.4-22.5 13.5-49.7 8.4-72.9l-0.1-0.3-54.2-265.1-187.4 41.2zM763.1 671.3l52.5 239.1"
		fill="#F68CB5" p-id="7530"></path>
	<path
		d="M815.5 931.2c-9.6 0-18.2-6.6-20.3-16.3l-52.4-239c-2.5-11.2 4.6-22.3 15.8-24.8 11.2-2.5 22.3 4.6 24.8 15.8l52.4 239c2.5 11.2-4.6 22.3-15.8 24.8-1.5 0.3-3 0.5-4.5 0.5z"
		fill="#F68CB5" p-id="7531"></path>
	<path
		d="M737.8 951.5c-9.6 0-18.2-6.6-20.3-16.3-2.5-11.2 4.6-22.3 15.8-24.8L890.2 876c11.2-2.5 22.3 4.6 24.8 15.8 2.5 11.2-4.6 22.3-15.8 24.8L742.3 951c-1.5 0.4-3 0.5-4.5 0.5zM346.8 658.3c-6.7 0-13.4-0.6-20-1.8l-31.6-5.9c-36.4-6.8-67-31.8-86.4-70.4-17.1-34.3-23.1-74.9-16.3-111.5l60.1-350.9L558 174.7l-65.2 349.8c-6.8 36.4-28 72.2-58.2 98.2-27.2 23.3-57.7 35.6-87.8 35.6z m-44.1-48.6l31.6 5.9c32 6 59.6-12.8 73.1-24.4 22.8-19.6 39.4-47.4 44.4-74.3L509.3 208l-223-41.5-53.1 309.7c-5.1 27.5-0.4 59.4 12.6 85.4 7.9 15.4 25.5 42.3 56.9 48.1zM312.4 634.3l-51.5 276.4"
		fill="#F68CB5" p-id="7532"></path>
	<path
		d="M261 931.5c-1.3 0-2.5-0.1-3.8-0.4-11.3-2.1-18.7-13-16.6-24.2L292 630.5c2.1-11.3 13-18.7 24.2-16.6 11.3 2.1 18.7 13 16.6 24.2l-51.5 276.4c-1.8 10-10.5 17-20.3 17z"
		fill="#F68CB5" p-id="7533"></path>
	<path
		d="M351.2 950.8c-1.3 0-2.5-0.1-3.8-0.4L166 916.6c-11.3-2.1-18.7-13-16.6-24.2 2.1-11.3 13-18.7 24.2-16.6L355 909.5c11.3 2.1 18.7 13 16.6 24.2-1.8 10.1-10.6 17.1-20.4 17.1z"
		fill="#F68CB5" p-id="7534"></path>
	<path
		d="M455.9 387.1c-1.1 0-2.3-0.1-3.5-0.3L280 354.4c-10.2-1.9-16.8-11.7-14.9-21.8 1.9-10.2 11.7-16.8 21.8-14.9L459.3 350c10.2 1.9 16.8 11.7 14.9 21.8-1.7 9.1-9.5 15.3-18.3 15.3z"
		fill="#89D3F4" p-id="7535"></path>
	<path
		d="M623.2 452.9c-8.6 0-16.4-6-18.3-14.8-2.2-10.1 4.2-20.1 14.3-22.2l138.4-30c10.1-2.2 20.1 4.2 22.2 14.3s-4.2 20.1-14.3 22.2l-138.4 30c-1.3 0.4-2.6 0.5-3.9 0.5z"
		fill="#F68CB5" p-id="7536"></path>
</svg>