<?xml version="1.0" standalone="no"?><!DOCTYPE svg PUBLIC "-//W3C//DTD SVG 1.1//EN" "http://www.w3.org/Graphics/SVG/1.1/DTD/svg11.dtd"><svg t="1718095558956" class="icon" viewBox="0 0 1024 1024" version="1.1" xmlns="http://www.w3.org/2000/svg" p-id="2982" xmlns:xlink="http://www.w3.org/1999/xlink" width="200" height="200"><path d="M512 0a512 512 0 1 0 512 512 512 512 0 0 0-512-512z m311.104 823.104a440 440 0 1 1-482.432-716.8 440.256 440.256 0 0 1 576.704 234.176 440.32 440.32 0 0 1-94.272 482.368z m-316.288-159.168a33.728 33.728 0 0 1-3.584 0 36.032 36.032 0 0 1-32-39.36 231.296 231.296 0 0 1 81.472-130.816c64.512-64.448 65.6-84.992 66.688-106.624a92.608 92.608 0 0 0-26.432-69.12A112.32 112.32 0 0 0 512 283.456a107.712 107.712 0 0 0-107.712 107.456 36.032 36.032 0 0 1-72 0 179.2 179.2 0 0 1 179.2-179.2 184.768 184.768 0 0 1 133.824 57.024 163.904 163.904 0 0 1 46.08 122.432c-2.496 46.336-16.704 82.816-87.68 153.6-36.032 36.032-58.688 63.04-60.992 86.72a36.032 36.032 0 0 1-35.776 32.512z m-44.8 105.28a43.328 43.328 0 1 0 43.328-43.328 43.328 43.328 0 0 0-43.136 43.328z" fill="#999999" p-id="2983"></path></svg>