<?xml version="1.0" standalone="no"?><!DOCTYPE svg PUBLIC "-//W3C//DTD SVG 1.1//EN" "http://www.w3.org/Graphics/SVG/1.1/DTD/svg11.dtd"><svg t="1715861550104" class="icon" viewBox="0 0 1024 1024" version="1.1" xmlns="http://www.w3.org/2000/svg" p-id="1597" xmlns:xlink="http://www.w3.org/1999/xlink" width="200" height="200"><path d="M748.3 275.4S1039.1 32 937.4 32c-362.7 63.2-793 722.3-832 893.6-22.2 105 21.4 59.5 45.5 37.2 24.1-22.3 135.9-267.4 268.9-315.2C720.6 576.8 804.3 505.2 825.5 447c-86.9 25.4-128.7 0.5-184.8-7.7 48-16.3 233.8-15.6 273.2-220.8-65.7 69.3-165.6 56.9-165.6 56.9zM680.9 903H281.4c-24.5 0-44.5 20-44.5 44.5s20 44.5 44.5 44.5h399.5c24.5 0 44.5-20 44.5-44.5s-20-44.5-44.5-44.5z" fill="#98e8fb" p-id="1598"></path></svg>