<svg t="1712220580403" class="icon" viewBox="0 0 1025 1024" version="1.1" xmlns="http://www.w3.org/2000/svg" p-id="2737" width="200" height="200"><path d="M585.840286 48.820024h-146.460071a48.820024 48.820024 0 0 0-48.820024 48.820024v829.940405a48.820024 48.820024 0 0 0 48.820024 48.820024h146.460071a48.820024 48.820024 0 0 0 48.820024-48.820024V97.640048a48.820024 48.820024 0 0 0-48.820024-48.820024z m7.078904 829.940405h-160.617879v-24.410012h160.617879zM889.012634 219.690107h-148.168772a48.820024 48.820024 0 0 0-48.820024 48.820024v659.070322a48.820024 48.820024 0 0 0 48.820024 48.820024h148.168772a48.820024 48.820024 0 0 0 48.820024-48.820024V268.510131a48.820024 48.820024 0 0 0-48.820024-48.820024z m6.346603 659.070322h-160.861978v-24.410012h160.861978z m-610.250298-707.890346h-148.901072a48.820024 48.820024 0 0 0-48.820024 48.820024v707.890346a48.820024 48.820024 0 0 0 48.820024 48.820024h148.168772a48.820024 48.820024 0 0 0 48.820024-48.820024V219.690107a48.820024 48.820024 0 0 0-48.820024-48.820024z m6.346603 707.890346H129.861263v-24.410012h160.861979z" p-id="2738"></path></svg>