<svg t="1713775160989" class="icon" viewBox="0 0 1024 1024" version="1.1" xmlns="http://www.w3.org/2000/svg" p-id="2755"
    width="200" height="200">
    <path
        d="M896.032 382.752h-160a8 8 0 0 1 0-16h160a8 8 0 0 1 0 16zM944.032 382.752h-16a8 8 0 0 1 0-16h16a8 8 0 0 1 0 16zM944.032 144h-64a8 8 0 0 1 0-16h64a8 8 0 0 1 0 16z"
        fill="#263238" p-id="2756"></path>
    <path
        d="M912.032 176a8 8 0 0 1-8-8v-64a8 8 0 0 1 16 0v64a8 8 0 0 1-8 8zM832.032 248h-64a8 8 0 0 1 0-16h64a8 8 0 0 1 0 16z"
        fill="#263238" p-id="2757"></path>
    <path
        d="M800.032 280a8 8 0 0 1-8-8v-64a8 8 0 0 1 16 0v64a8 8 0 0 1-8 8zM512.032 374.768c-74.992 0-136-61.008-136-136s61.008-136 136-136 136 61.008 136 136-61.024 136-136 136z m0-256c-66.176 0-120 53.824-120 120s53.824 120 120 120 120-53.824 120-120-53.824-120-120-120z"
        fill="#263238" p-id="2758"></path>
    <path d="M600.784 164.768l9.536-7.936a128 128 0 0 0-226.288 81.952h12.08a320.08 320.08 0 0 0 204.672-74.016z"
        fill="#FFD740" p-id="2759"></path>
    <path
        d="M396.128 246.768h-12.096a8 8 0 0 1-8-8c0-74.992 61.008-136 136-136a135.728 135.728 0 0 1 104.432 48.928 8 8 0 0 1-1.04 11.28l-9.552 7.936a328.512 328.512 0 0 1-209.744 75.856z m-3.824-16h3.824c72.768 0 143.632-25.632 199.536-72.16h0.016l3.168-2.64a119.68 119.68 0 0 0-86.816-37.2c-63.488 0-115.616 49.552-119.728 112zM512.032 462.864a7.984 7.984 0 0 1-6.656-3.568l-47.984-72a7.936 7.936 0 0 1-1.344-4.432l-0.016-25.472a8 8 0 0 1 16 0l0.016 23.056 39.984 60 40-60v-23.056a8 8 0 0 1 16 0v25.488a7.936 7.936 0 0 1-1.344 4.432l-48 72a8.048 8.048 0 0 1-6.656 3.552z"
        fill="#263238" p-id="2760"></path>
    <path d="M552.192 646.864l-40 40-40-40 23.84-192h32z" fill="#40C4FF" p-id="2761"></path>
    <path
        d="M512.192 694.864a8.032 8.032 0 0 1-5.664-2.336l-40-40a8 8 0 0 1-2.288-6.64l23.84-192a8 8 0 0 1 7.936-7.008h32a8 8 0 0 1 7.936 7.008l24.16 192a7.936 7.936 0 0 1-2.288 6.656l-40 40a7.952 7.952 0 0 1-5.632 2.32z m-31.584-50.88l31.584 31.584 31.584-31.584-22.8-181.104h-17.872l-22.496 181.104z"
        fill="#263238" p-id="2762"></path>
    <path
        d="M576.032 462.864h-128a8.032 8.032 0 0 1-7.824-9.728l16-72a8 8 0 0 1 14.464-2.704l41.344 62.016 41.344-62a8 8 0 1 1 14.464 2.704l16 72a7.984 7.984 0 0 1-7.792 9.712z m-49.04-16h39.072l-9.776-43.968-29.296 43.968z m-68.992 0h39.072l-29.296-43.968-9.776 43.968z"
        fill="#263238" p-id="2763"></path>
    <path
        d="M704.032 743.984h-80a8 8 0 0 1 0-16h72V498.752a72.08 72.08 0 0 0-42.64-65.744l-96.624-43.168a8 8 0 0 1-4.032-10.576c1.792-4.032 6.528-5.856 10.56-4.032l96.624 43.168a88.096 88.096 0 0 1 52.112 80.352v237.232a8 8 0 0 1-8 8zM399.968 743.984a8 8 0 0 1-8-8V531.296l-60.672 60.672a48.032 48.032 0 0 1-67.872 0L150.336 478.88a8 8 0 0 1 0-11.312l56.56-56.56a8 8 0 0 1 11.312 0l79.2 79.2 52.944-52.944a167.728 167.728 0 0 1 49.504-34.256l60.88-27.552a8 8 0 1 1 6.592 14.592L406.448 417.6a151.84 151.84 0 0 0-44.784 30.992l-58.592 58.592a8 8 0 0 1-11.312 0l-79.2-79.2-45.248 45.248 107.44 107.44a32.048 32.048 0 0 0 45.248 0l74.336-74.32a8 8 0 1 1 13.664 5.664v224a8.048 8.048 0 0 1-8.032 7.968z"
        fill="#263238" p-id="2764"></path>
    <path
        d="M624.032 743.984a8 8 0 0 1-8-8V512a8 8 0 0 1 16 0v224a8 8 0 0 1-8 7.984zM133.36 458.592a8 8 0 0 1-6.656-3.568c-17.696-17.552-17.68-47.984 0.992-66.672a47.632 47.632 0 0 1 33.936-14.048h0.048c12.832 0 24.896 5.008 33.952 14.096a8 8 0 1 1-11.456 11.184 31.728 31.728 0 0 0-22.512-9.28h-0.032a31.84 31.84 0 0 0-22.624 9.36 32.08 32.08 0 0 0-0.032 45.232 8 8 0 0 1-5.616 13.696zM664.016 814.848a47.68 47.68 0 0 1-33.968-14.08 47.728 47.728 0 0 1-14.032-33.984 8 8 0 0 1 7.024-7.936 7.824 7.824 0 0 1 8.736 6 8.048 8.048 0 0 1 0.24 2.128c0.032 8.496 3.36 16.464 9.36 22.48a31.84 31.84 0 0 0 22.64 9.392 32.048 32.048 0 0 0 32-31.952 7.952 7.952 0 0 1 10.208-7.712 8 8 0 0 1 5.792 8.24 48.064 48.064 0 0 1-48 47.424z"
        fill="#263238" p-id="2765"></path>
    <path
        d="M624.032 927.984a8 8 0 0 1-8-8v-176h-208v176a8 8 0 0 1-16 0v-184a8 8 0 0 1 8-8h224a8 8 0 0 1 8 8v184a8 8 0 0 1-8 8z"
        fill="#263238" p-id="2766"></path>
    <path
        d="M512.032 927.984a8 8 0 0 1-8-8v-104a8 8 0 0 1 16 0v104a8 8 0 0 1-8 8zM840 799.984c-57.344 0-104-46.656-104-104s46.656-104 104-104 104 46.656 104 104-46.656 104-104 104z m0-192c-48.512 0-88 39.472-88 88s39.488 88 88 88 88-39.472 88-88-39.488-88-88-88z"
        fill="#263238" p-id="2767"></path>
    <path d="M906.56 640.48l7.152-5.952A96 96 0 0 0 744 695.984h9.056c56.08 0 110.4-19.632 153.504-55.504z"
        fill="#FFD740" p-id="2768"></path>
    <path
        d="M753.056 703.984H744a8 8 0 0 1-8-8c0-57.344 46.656-104 104-104 30.912 0 60.016 13.632 79.856 37.408a8 8 0 0 1-1.04 11.28l-7.152 5.952a248.4 248.4 0 0 1-158.608 57.36z m-0.704-16h0.704c54.096 0 106.8-19.056 148.384-53.664l0.72-0.608a87.792 87.792 0 0 0-62.176-25.744 88.16 88.16 0 0 0-87.632 80.016zM840.064 887.92a7.984 7.984 0 0 1-6.656-3.568l-48.048-72a7.936 7.936 0 0 1-1.344-4.432l-0.032-28.864a8 8 0 0 1 7.984-8h0.016a8 8 0 0 1 8 8l0.032 26.432 40.048 60.016 39.952-60-0.032-26.352a8 8 0 0 1 7.984-8h0.016a8 8 0 0 1 8 8l0.032 28.768a8.032 8.032 0 0 1-1.344 4.448l-47.952 72a8.048 8.048 0 0 1-6.656 3.552z"
        fill="#263238" p-id="2769"></path>
    <path
        d="M1000 927.936a8 8 0 0 1-8-8v-6.56a71.632 71.632 0 0 0-39.792-64.4l-67.776-33.888a8 8 0 0 1 7.152-14.32l67.776 33.888a87.552 87.552 0 0 1 48.64 78.72v6.56a8 8 0 0 1-8 8zM680 927.968a8 8 0 0 1-8-8v-6.608a87.52 87.52 0 0 1 48.592-78.672l67.76-33.952a8 8 0 0 1 7.152 14.304l-67.76 33.952A71.632 71.632 0 0 0 688 913.36v6.608a8 8 0 0 1-8 8zM840 927.984a8 8 0 0 1-8-8v-40.064a8 8 0 0 1 16 0v40.064a8 8 0 0 1-8 8zM184 799.984c-57.344 0-104-46.656-104-104s46.656-104 104-104 104 46.656 104 104-46.656 104-104 104z m0-192c-48.512 0-88 39.472-88 88s39.488 88 88 88 88-39.472 88-88-39.488-88-88-88z"
        fill="#263238" p-id="2770"></path>
    <path d="M250.56 640.48l7.152-5.952A96 96 0 0 0 88 695.984h9.056c56.096 0 110.4-19.632 153.504-55.504z"
        fill="#FFD740" p-id="2771"></path>
    <path
        d="M97.056 703.984H88a8 8 0 0 1-8-8c0-57.344 46.656-104 104-104 30.912 0 60.016 13.632 79.856 37.408a8 8 0 0 1-1.04 11.28l-7.152 5.952a248.4 248.4 0 0 1-158.608 57.36z m-0.704-16h0.704c54.096 0 106.8-19.056 148.384-53.664l0.72-0.608a87.792 87.792 0 0 0-62.176-25.744 88.16 88.16 0 0 0-87.632 80.016zM184.08 887.92a7.984 7.984 0 0 1-6.656-3.568l-48.064-72a7.936 7.936 0 0 1-1.344-4.432l-0.032-28.864a8 8 0 0 1 7.984-8h0.016a8 8 0 0 1 8 8l0.032 26.432 40.048 60.016 39.952-60-0.032-26.352a8 8 0 0 1 7.984-8h0.016a8 8 0 0 1 8 8l0.032 28.768a7.936 7.936 0 0 1-1.344 4.432l-47.936 72a8 8 0 0 1-6.656 3.568z"
        fill="#263238" p-id="2772"></path>
    <path
        d="M344 927.936a8 8 0 0 1-8-8v-6.56a71.632 71.632 0 0 0-39.792-64.4l-67.776-33.888a8 8 0 0 1 7.152-14.32l67.776 33.888a87.552 87.552 0 0 1 48.64 78.72v6.56a8 8 0 0 1-8 8zM24 927.968a8 8 0 0 1-8-8v-6.608a87.52 87.52 0 0 1 48.592-78.672l67.76-33.952a8 8 0 0 1 7.152 14.304l-67.76 33.952A71.632 71.632 0 0 0 32 913.36v6.608a8 8 0 0 1-8 8zM184 927.984a8 8 0 0 1-8-8v-40.064a8 8 0 0 1 16 0v40.064a8 8 0 0 1-8 8z"
        fill="#263238" p-id="2773"></path>
    <path
        d="M160.08 286.72a88.096 88.096 0 0 1-88-88v-80a8 8 0 0 1 8-8h160a8 8 0 0 1 8 8v80c0 48.528-39.488 88-88 88z m-72-160v72c0 39.696 32.304 72 72 72s72-32.304 72-72v-72h-144z"
        fill="#263238" p-id="2774"></path>
    <path
        d="M176.08 358.304a8 8 0 0 1-8-8V286.72h-16v63.568a8 8 0 0 1-16 0V278.72a8 8 0 0 1 8-8h32a8 8 0 0 1 8 8v71.568a8 8 0 0 1-8 8.016z"
        fill="#263238" p-id="2775"></path>
    <path
        d="M80.08 222.72h-16c-26.464 0-48-21.536-48-48v-32a8 8 0 0 1 8-8h56a8 8 0 0 1 8 8v72a8 8 0 0 1-8 8z m-48-72v24c0 17.648 14.352 32 32 32h8v-56h-40z"
        fill="#263238" p-id="2776"></path>
    <path
        d="M256.08 222.72h-16a8 8 0 0 1-8-8v-72a8 8 0 0 1 8-8h56a8 8 0 0 1 8 8v32c0 26.48-21.536 48-48 48z m-8-16h8c17.648 0 32-14.352 32-32v-24h-40v56z"
        fill="#263238" p-id="2777"></path>
</svg>