<svg t="1714808124344" class="icon" viewBox="0 0 1024 1024" version="1.1" xmlns="http://www.w3.org/2000/svg" p-id="8223"
	width="200" height="200">
	<path
		d="M924.24453 336.77621c-22.575158-53.369511-54.885028-101.295034-96.034217-142.445246-41.151235-41.150212-89.075735-73.461105-142.445246-96.034217-55.267744-23.376407-113.961518-35.229362-174.452217-35.229362s-119.184473 11.852956-174.452217 35.229362c-53.369511 22.573111-101.295034 54.884005-142.445246 96.034217-41.150212 41.149189-73.461105 89.074711-96.034217 142.445246C75.006809 392.043954 63.153854 450.738751 63.153854 511.228427c0 51.092655 8.535397 101.220333 25.367761 148.988266 16.269545 46.169529 39.925315 89.171925 70.308299 127.811967 8.738012 11.109012 24.826432 13.033851 35.93749 4.298909 11.111059-8.736988 13.035898-24.827455 4.299933-35.938514-55.429427-70.490447-84.726683-155.265226-84.726683-245.160629 0-218.892359 178.081884-396.974243 396.974243-396.974243 218.892359 0 396.974243 178.081884 396.974243 396.974243S730.206232 908.202671 511.313873 908.202671c-65.730027 0-130.835837-16.389272-188.279131-47.396473-12.438287-6.714935-27.963888-2.073218-34.6778 10.365068s-2.073218 27.963888 10.365068 34.678824c64.887846 35.025725 138.40114 53.53938 212.591863 53.53938 60.489676 0 119.184473-11.852956 174.452217-35.229362 53.369511-22.575158 101.294011-54.885028 142.445246-96.034217 41.149189-41.151235 73.459059-89.075735 96.034217-142.445246 23.376407-55.267744 35.229362-113.961518 35.229362-174.452217S947.620937 392.043954 924.24453 336.77621z"
		p-id="8224" fill="#1afa29"></path>
	<path
		d="M392.427182 665.49593c13.475919 13.475919 31.172977 20.212344 48.876174 20.212344 17.698081 0 35.402301-6.739495 48.875151-20.212344l0.182149-0.182149 273.974885-285.243533c9.790994-10.194176 9.464559-26.39516-0.728594-36.186154-10.194176-9.790994-26.394137-9.465582-36.186154 0.728594L453.84295 629.441782c-6.819313 6.671956-17.681708 6.80294-24.661679 0.398066L296.193421 474.462059c-9.19236-10.738575-25.346271-11.993149-36.08587-2.801812-10.738575 9.191336-11.993149 25.347295-2.801812 36.08587L391.725194 664.793942 392.427182 665.49593z"
		p-id="8225" fill="#1afa29"></path>
</svg>